<?xml version="1.0" encoding="utf-8"?>
<svg xmlns="http://www.w3.org/2000/svg" style="margin: auto; background: none; display: block; shape-rendering: auto;" width="280" height="250" preserveAspectRatio="xMidYMid">
<style type="text/css">
  text {
    text-anchor: middle; font-size: 80px; opacity: 0;
  }
</style>
<g style="transform-origin:140px 125px;transform:scale(1)">
<g transform="translate(140,125)">
  <g transform="translate(0,0)"><g class="path" style="transform: scale(0.91); transform-origin: -86.6px -32.0985px; animation: 2.22222s linear -1.43256s infinite normal forwards running breath-cb77ee28-b880-418c-803b-001720b61602;"><path d="M29.12-55.44L29.12-55.44L29.12-55.44Q28.96-54.32 28.12-53.44L28.12-53.44L28.12-53.44Q27.28-52.56 26.16-51.96L26.16-51.96L26.16-51.96Q25.04-51.36 23.80-51L23.80-51L23.80-51Q22.56-50.64 21.52-50.64L21.52-50.64L21.52-50.64Q20.24-50.64 18.52-50.96L18.52-50.96L18.52-50.96Q16.80-51.28 15.24-51.76L15.24-51.76L15.24-51.76Q13.68-52.24 12.60-52.72L12.60-52.72L12.60-52.72Q11.52-53.20 11.52-53.60L11.52-53.60L11.52-53.60Q11.52-53.76 11.84-53.84L11.84-53.84L11.84-53.84Q12.16-53.92 12.68-54L12.68-54L12.68-54Q13.20-54.08 13.76-54.08L13.76-54.08L13.76-54.08Q14.32-54.08 14.72-54.08L14.72-54.08L14.72-54.08Q16.32-54.08 18.28-53.92L18.28-53.92L18.28-53.92Q20.24-53.76 21.84-53.84L21.84-53.84L21.84-53.84Q23.12-53.84 24-53.92L24-53.92L24-53.92Q24.88-54 25.64-54.20L25.64-54.20L25.64-54.20Q26.40-54.40 27.12-54.68L27.12-54.68L27.12-54.68Q27.84-54.96 28.80-55.44L28.80-55.44L28.80-55.44Q28.96-55.60 29.12-55.44" fill="#7d5753" stroke="none" stroke-width="none" transform="translate(-106.91998291015625,20.98150834194449)" style="fill: rgb(125, 87, 83);"></path></g><g class="path" style="transform: scale(0.91); transform-origin: -91.752px -33.2585px; animation: 2.22222s linear -1.39845s infinite normal forwards running breath-cb77ee28-b880-418c-803b-001720b61602;"><path d="M29.92-58L29.92-58L29.92-58Q29.92-57.20 29.16-56.64L29.16-56.64L29.16-56.64Q28.40-56.08 27.40-55.72L27.40-55.72L27.40-55.72Q26.40-55.36 25.32-55.16L25.32-55.16L25.32-55.16Q24.24-54.96 23.68-54.96L23.68-54.96L23.68-54.96Q20.72-54.96 17.68-55.60L17.68-55.60L17.68-55.60Q14.64-56.24 11.68-56.24L11.68-56.24L11.68-56.24Q8.16-56.24 5.36-54.60L5.36-54.60L5.36-54.60Q2.56-52.96 0.96-50L0.96-50L0.96-50Q0.80-49.76 0.56-49.76L0.56-49.76L0.56-49.76Q0.32-49.76 0.48-50.16L0.48-50.16L0.48-50.16Q1.76-54.08 4.56-56.40L4.56-56.40L4.56-56.40Q7.36-58.72 11.84-58.72L11.84-58.72L11.84-58.72Q15.20-58.72 18.52-57.96L18.52-57.96L18.52-57.96Q21.84-57.20 25.20-57.20L25.20-57.20L25.20-57.20Q26.40-57.20 27.72-57.48L27.72-57.48L27.72-57.48Q29.04-57.76 29.36-57.92L29.36-57.92L29.36-57.92Q29.44-58 29.68-58.04L29.68-58.04L29.68-58.04Q29.92-58.08 29.92-58" fill="#7d5753" stroke="none" stroke-width="none" transform="translate(-106.91998291015625,20.98150834194449)" style="fill: rgb(224, 170, 130);"></path></g><g class="path" style="transform: scale(0.91); transform-origin: -102.88px -29.4585px; animation: 2.22222s linear -1.36434s infinite normal forwards running breath-cb77ee28-b880-418c-803b-001720b61602;"><path d="M7.28-53.12L7.28-53.12L7.28-53.12Q7.28-52.96 6.80-52.56L6.80-52.56L6.80-52.56Q6.32-52.16 5.68-51.72L5.68-51.72L5.68-51.72Q5.04-51.28 4.44-50.92L4.44-50.92L4.44-50.92Q3.84-50.56 3.60-50.40L3.60-50.40L3.60-50.40Q2.88-49.76 2.32-49.08L2.32-49.08L2.32-49.08Q1.76-48.40 1.12-47.68L1.12-47.68L1.12-47.68Q1.04-47.68 1.04-47.56L1.04-47.56L1.04-47.56Q1.04-47.44 0.88-47.44L0.88-47.44L0.88-47.44Q0.80-47.44 0.80-47.68L0.80-47.68L0.80-47.68Q0.80-48.64 1.36-49.68L1.36-49.68L1.36-49.68Q1.92-50.72 2.76-51.56L2.76-51.56L2.76-51.56Q3.60-52.40 4.68-52.92L4.68-52.92L4.68-52.92Q5.76-53.44 6.80-53.44L6.80-53.44L6.80-53.44Q7.28-53.44 7.28-53.12" fill="#7d5753" stroke="none" stroke-width="none" transform="translate(-106.91998291015625,20.98150834194449)" style="fill: rgb(31, 20, 24);"></path></g><g class="path" style="transform: scale(0.91); transform-origin: -91.8796px 2.76373px; animation: 2.22222s linear -1.33023s infinite normal forwards running breath-cb77ee28-b880-418c-803b-001720b61602;"><path d="M25.44-38.96L25.44-38.96L25.44-38.96Q25.52-35.04 24.64-30.76L24.64-30.76L24.64-30.76Q23.76-26.48 22.16-22.12L22.16-22.12L22.16-22.12Q20.56-17.76 18.52-13.52L18.52-13.52L18.52-13.52Q16.48-9.28 14.24-5.52L14.24-5.52L14.24-5.52Q12-1.76 9.76 1.44L9.76 1.44L9.76 1.44Q7.52 4.64 5.68 6.88L5.68 6.88L5.68 6.88Q5.60 6.96 5.44 7.16L5.44 7.16L5.44 7.16Q5.28 7.36 5.12 7.56L5.12 7.56L5.12 7.56Q4.96 7.76 4.80 7.80L4.80 7.80L4.80 7.80Q4.64 7.84 4.64 7.52L4.64 7.52L4.64 7.52Q4.56 7.28 5.56 5.32L5.56 5.32L5.56 5.32Q6.56 3.36 8.04 0.48L8.04 0.48L8.04 0.48Q9.52-2.40 11.32-5.76L11.32-5.76L11.32-5.76Q13.12-9.12 14.72-12.20L14.72-12.20L14.72-12.20Q16.32-15.28 17.52-17.64L17.52-17.64L17.52-17.64Q18.72-20 19.04-20.88L19.04-20.88L19.04-20.88Q19.92-23.28 20.84-25.96L20.84-25.96L20.84-25.96Q21.76-28.64 22.52-31.52L22.52-31.52L22.52-31.52Q23.28-34.40 23.72-37.44L23.72-37.44L23.72-37.44Q24.16-40.48 24.08-43.60L24.08-43.60L24.08-43.60Q24.08-44.24 24.16-44.24L24.16-44.24L24.16-44.24Q24.32-44.24 24.40-44.12L24.40-44.12L24.40-44.12Q24.48-44 24.64-43.44L24.64-43.44L24.64-43.44Q24.88-42.64 25.16-41.16L25.16-41.16L25.16-41.16Q25.44-39.68 25.44-38.96" fill="#7d5753" stroke="none" stroke-width="none" transform="translate(-106.91998291015625,20.98150834194449)" style="fill: rgb(68, 26, 33);"></path></g><g class="path" style="transform: scale(0.91); transform-origin: -94.6552px 3.03382px; animation: 2.22222s linear -1.29612s infinite normal forwards running breath-cb77ee28-b880-418c-803b-001720b61602;"><path d="M18.96-47.12L18.96-47.12L18.96-47.12Q18.32-40.56 16.96-35.32L16.96-35.32L16.96-35.32Q15.60-30.08 13.96-25.84L13.96-25.84L13.96-25.84Q12.32-21.60 10.52-18.16L10.52-18.16L10.52-18.16Q8.72-14.72 7.28-11.84L7.28-11.84L7.28-11.84Q5.76-8.80 4.44-5.76L4.44-5.76L4.44-5.76Q3.12-2.72 2.12 0.44L2.12 0.44L2.12 0.44Q1.12 3.60 0.52 6.96L0.52 6.96L0.52 6.96Q-0.08 10.32-0.08 14.08L-0.08 14.08L-0.08 14.08Q-0.08 14.96-0.24 14.80L-0.24 14.80L-0.24 14.80Q-0.40 14.80-0.52 14.36L-0.52 14.36L-0.52 14.36Q-0.64 13.92-0.80 13.32L-0.80 13.32L-0.80 13.32Q-0.96 12.72-1.08 12.16L-1.08 12.16L-1.08 12.16Q-1.20 11.60-1.20 11.20L-1.20 11.20L-1.20 11.20Q-1.60 7.52-1.16 4.28L-1.16 4.28L-1.16 4.28Q-0.72 1.04 0.20-1.96L0.20-1.96L0.20-1.96Q1.12-4.96 2.40-7.76L2.40-7.76L2.40-7.76Q3.68-10.56 4.88-13.44L4.88-13.44L4.88-13.44Q6.16-16.48 8.04-20.48L8.04-20.48L8.04-20.48Q9.92-24.48 11.76-28.92L11.76-28.92L11.76-28.92Q13.60-33.36 15.12-38.04L15.12-38.04L15.12-38.04Q16.64-42.72 17.20-47.12L17.20-47.12L17.20-47.12Q14.16-47.28 10.92-47.80L10.92-47.80L10.92-47.80Q7.68-48.32 4.88-49.12L4.88-49.12L4.88-49.12Q4.72-49.20 4.56-49.28L4.56-49.28L4.56-49.28Q4.40-49.36 4.40-49.52L4.40-49.52L4.40-49.52Q4.32-49.76 4.76-49.92L4.76-49.92L4.76-49.92Q5.20-50.08 5.28-50.08L5.28-50.08L5.28-50.08Q7.84-50.72 10.08-50.72L10.08-50.72L10.08-50.72Q13.12-50.72 16.08-50.12L16.08-50.12L16.08-50.12Q19.04-49.52 22.08-49.52L22.08-49.52L22.08-49.52Q23.04-49.52 24.12-49.72L24.12-49.72L24.12-49.72Q25.20-49.92 25.60-50.08L25.60-50.08L25.60-50.08Q25.92-50.24 25.92-50.04L25.92-50.04L25.92-50.04Q25.92-49.84 25.84-49.68L25.84-49.68L25.84-49.68Q25.12-48.80 24.12-48.28L24.12-48.28L24.12-48.28Q23.12-47.76 22-47.44L22-47.44L22-47.44Q22.24-46.40 22.32-45.56L22.32-45.56L22.32-45.56Q22.40-44.72 22.48-44.08L22.48-44.08L22.48-44.08Q22.96-40 22.04-35.48L22.04-35.48L22.04-35.48Q21.12-30.96 19.36-26.44L19.36-26.44L19.36-26.44Q17.60-21.92 15.20-17.56L15.20-17.56L15.20-17.56Q12.80-13.20 10.32-9.52L10.32-9.52L10.32-9.52Q9.68-8.64 9.40-8.96L9.40-8.96L9.40-8.96Q9.12-9.28 9.52-10.32L9.52-10.32L9.52-10.32Q10-11.60 11.04-13.88L11.04-13.88L11.04-13.88Q12.08-16.16 13.20-18.60L13.20-18.60L13.20-18.60Q14.32-21.04 15.28-23.20L15.28-23.20L15.28-23.20Q16.24-25.36 16.56-26.32L16.56-26.32L16.56-26.32Q18.64-32.80 19.56-38.04L19.56-38.04L19.56-38.04Q20.48-43.28 20.32-47.20L20.32-47.20L20.32-47.20Q19.92-47.12 19.60-47.12L19.60-47.12L19.60-47.12Q19.28-47.12 18.96-47.12" fill="#7d5753" stroke="none" stroke-width="none" transform="translate(-106.91998291015625,20.98150834194449)" style="fill: rgb(126, 31, 48);"></path></g><g class="path" style="transform: scale(0.91); transform-origin: -104px 28.819px; animation: 2.22222s linear -1.26202s infinite normal forwards running breath-cb77ee28-b880-418c-803b-001720b61602;"><path d="M4.96-0.40L4.96-0.40L4.96-0.40Q4.96 0.08 4.72 1.32L4.72 1.32L4.72 1.32Q4.48 2.56 4.16 4L4.16 4L4.16 4Q3.84 5.44 3.52 6.76L3.52 6.76L3.52 6.76Q3.20 8.08 3.12 8.72L3.12 8.72L3.12 8.72Q2.72 10.40 2.52 12.08L2.52 12.08L2.52 12.08Q2.32 13.76 2.16 15.60L2.16 15.60L2.16 15.60Q2.16 15.76 2.12 16.08L2.12 16.08L2.12 16.08Q2.08 16.40 1.84 16.40L1.84 16.40L1.84 16.40Q1.68 16.32 1.60 15.92L1.60 15.92L1.60 15.92Q1.52 15.52 1.44 15.36L1.44 15.36L1.44 15.36Q1.28 14.64 1.08 13.48L1.08 13.48L1.08 13.48Q0.88 12.32 0.88 11.68L0.88 11.68L0.88 11.68Q0.88 9.68 1.28 7.48L1.28 7.48L1.28 7.48Q1.68 5.28 2.24 3.44L2.24 3.44L2.24 3.44Q2.80 1.60 3.44 0.40L3.44 0.40L3.44 0.40Q4.08-0.80 4.64-0.72L4.64-0.72L4.64-0.72Q4.80-0.64 4.84-0.56L4.84-0.56L4.84-0.56Q4.88-0.48 4.96-0.40" fill="#7d5753" stroke="none" stroke-width="none" transform="translate(-106.91998291015625,20.98150834194449)" style="fill: rgb(219, 53, 72);"></path></g><g class="path" style="transform: scale(0.91); transform-origin: -52.5292px -5.82849px; animation: 2.22222s linear -1.22791s infinite normal forwards running breath-cb77ee28-b880-418c-803b-001720b61602;"><path d="M57.28-28.16L57.28-28.16L57.28-28.16Q56.64-24.96 55.12-21.76L55.12-21.76L55.12-21.76Q53.60-18.56 52.24-15.76L52.24-15.76L52.24-15.76Q52.16-15.60 51.88-15.20L51.88-15.20L51.88-15.20Q51.60-14.80 51.44-14.80L51.44-14.80L51.44-14.80Q51.20-14.88 51.20-15.32L51.20-15.32L51.20-15.32Q51.20-15.76 51.20-15.92L51.20-15.92L51.20-15.92Q51.28-16.64 51.48-17.64L51.48-17.64L51.48-17.64Q51.68-18.64 51.84-19.72L51.84-19.72L51.84-19.72Q52-20.80 52.20-21.80L52.20-21.80L52.20-21.80Q52.40-22.80 52.64-23.60L52.64-23.60L52.64-23.60Q53.36-26.32 53.84-28.28L53.84-28.28L53.84-28.28Q54.32-30.24 54.56-31.84L54.56-31.84L54.56-31.84Q54.80-33.44 54.84-34.88L54.84-34.88L54.84-34.88Q54.88-36.32 54.64-38L54.64-38L54.64-38Q54.56-38.64 54.72-38.80L54.72-38.80L54.72-38.80Q54.88-38.88 55.12-38.64L55.12-38.64L55.12-38.64Q55.36-38.40 55.52-38.16L55.52-38.16L55.52-38.16Q56.88-36 57.36-33.40L57.36-33.40L57.36-33.40Q57.84-30.80 57.28-28.16" fill="#7d5753" stroke="none" stroke-width="none" transform="translate(-106.91998291015625,20.98150834194449)" style="fill: rgb(74, 64, 65);"></path></g><g class="path" style="transform: scale(0.91); transform-origin: -50.26px 1.86151px; animation: 2.22222s linear -1.1938s infinite normal forwards running breath-cb77ee28-b880-418c-803b-001720b61602;"><path d="M58.88-34L59.20-33.52L59.20-33.52Q60.24-32 60.24-29.52L60.24-29.52L60.24-29.52Q60.24-27.04 59.76-24.44L59.76-24.44L59.76-24.44Q59.28-21.84 58.56-19.44L58.56-19.44L58.56-19.44Q57.84-17.04 57.52-15.60L57.52-15.60L57.52-15.60Q56.88-12.80 55.76-10L55.76-10L55.76-10Q54.64-7.20 53.84-5.04L53.84-5.04L53.84-5.04Q53.76-4.80 53.60-4.52L53.60-4.52L53.60-4.52Q53.44-4.24 53.28-4.24L53.28-4.24L53.28-4.24Q53.12-4.24 53.12-4.56L53.12-4.56L53.12-4.56Q53.12-4.88 53.12-5.12L53.12-5.12L53.12-5.12Q52.88-9.52 54.08-13.72L54.08-13.72L54.08-13.72Q55.28-17.92 56.64-22.24L56.64-22.24L56.64-22.24Q57.44-24.88 58.16-27.64L58.16-27.64L58.16-27.64Q58.88-30.40 58.80-33.68L58.80-33.68L58.80-33.68Q58.80-34 58.88-34L58.88-34" fill="#7d5753" stroke="none" stroke-width="none" transform="translate(-106.91998291015625,20.98150834194449)" style="fill: rgb(44, 29, 30);"></path></g><g class="path" style="transform: scale(0.91); transform-origin: -67.0017px 1.53743px; animation: 2.22222s linear -1.15969s infinite normal forwards running breath-cb77ee28-b880-418c-803b-001720b61602;"><path d="M51.68-34.88L51.68-34.88L51.68-34.88Q46.80-32.88 43.40-29.16L43.40-29.16L43.40-29.16Q40-25.44 38.16-20.80L38.16-20.80L38.16-20.80Q37.36-18.72 36.96-17.08L36.96-17.08L36.96-17.08Q36.56-15.44 36.32-13.52L36.32-13.52L36.32-13.52Q36.24-13.12 36.56-12.72L36.56-12.72L36.56-12.72Q36.88-12.32 37.20-12.72L37.20-12.72L37.20-12.72Q38.64-14.48 40.88-17.20L40.88-17.20L40.88-17.20Q43.12-19.92 45.36-22.96L45.36-22.96L45.36-22.96Q47.60-26 49.40-29.12L49.40-29.12L49.40-29.12Q51.20-32.24 51.68-34.88zM46.32-7.76L46.32-7.76L46.32-7.76Q45.12-6.08 44-4.64L44-4.64L44-4.64Q42.88-3.20 41.52-2.12L41.52-2.12L41.52-2.12Q40.16-1.04 38.48-0.40L38.48-0.40L38.48-0.40Q36.80 0.24 34.64 0.32L34.64 0.32L34.64 0.32Q31.04 0.48 29.16-1.52L29.16-1.52L29.16-1.52Q27.28-3.52 26.56-6.40L26.56-6.40L26.56-6.40Q25.84-9.28 26.04-12.36L26.04-12.36L26.04-12.36Q26.24-15.44 26.88-17.44L26.88-17.44L26.88-17.44Q27.76-20.24 29-22.76L29-22.76L29-22.76Q30.24-25.28 31.64-27.32L31.64-27.32L31.64-27.32Q33.04-29.36 34.52-30.84L34.52-30.84L34.52-30.84Q36-32.32 37.44-33.12L37.44-33.12L37.44-33.12Q37.52-33.12 37.80-33.28L37.80-33.28L37.80-33.28Q38.08-33.44 38.08-33.20L38.08-33.20L38.08-33.20Q38.16-33.20 38-32.96L38-32.96L38-32.96Q37.84-32.72 37.68-32.56L37.68-32.56L37.68-32.56Q33.52-28.24 31.08-22.80L31.08-22.80L31.08-22.80Q28.64-17.36 28.32-11.60L28.32-11.60L28.32-11.60Q28.24-10.16 28.44-8.48L28.44-8.48L28.44-8.48Q28.64-6.80 29.24-5.32L29.24-5.32L29.24-5.32Q29.84-3.84 30.96-2.84L30.96-2.84L30.96-2.84Q32.08-1.84 34-1.84L34-1.84L34-1.84Q35.52-1.84 36.80-2.36L36.80-2.36L36.80-2.36Q38.08-2.88 39.20-3.72L39.20-3.72L39.20-3.72Q40.32-4.56 41.24-5.56L41.24-5.56L41.24-5.56Q42.16-6.56 42.88-7.44L42.88-7.44L42.88-7.44Q44.48-9.44 45.84-11.60L45.84-11.60L45.84-11.60Q45.84-13.20 46.04-14.72L46.04-14.72L46.04-14.72Q46.24-16.24 46.64-17.76L46.64-17.76L46.64-17.76Q46.88-18.88 47.08-19.56L47.08-19.56L47.08-19.56Q47.28-20.24 47.48-20.84L47.48-20.84L47.48-20.84Q47.68-21.44 47.88-22.12L47.88-22.12L47.88-22.12Q48.08-22.80 48.48-23.92L48.48-23.92L48.48-23.92Q47.20-21.68 45.96-19.72L45.96-19.72L45.96-19.72Q44.72-17.76 43.32-15.96L43.32-15.96L43.32-15.96Q41.92-14.16 40.44-12.44L40.44-12.44L40.44-12.44Q38.96-10.72 37.20-8.96L37.20-8.96L37.20-8.96Q35.84-7.60 34.96-8.08L34.96-8.08L34.96-8.08Q34.08-8.56 33.92-10.32L33.92-10.32L33.92-10.32Q33.76-13.04 34.20-15.60L34.20-15.60L34.20-15.60Q34.64-18.16 35.76-20.96L35.76-20.96L35.76-20.96Q36.80-23.52 38.36-25.92L38.36-25.92L38.36-25.92Q39.92-28.32 41.96-30.28L41.96-30.28L41.96-30.28Q44-32.24 46.48-33.64L46.48-33.64L46.48-33.64Q48.96-35.04 51.76-35.52L51.76-35.52L51.76-35.52Q51.92-36.40 52.04-37.04L52.04-37.04L52.04-37.04Q52.16-37.68 52.24-38.32L52.24-38.32L52.24-38.32Q52.40-39.20 52.40-39.20L52.40-39.20L52.40-39.20Q52.56-39.28 52.76-39.04L52.76-39.04L52.76-39.04Q52.96-38.80 53.12-38.40L53.12-38.40L53.12-38.40Q54.08-35.76 53.76-33.12L53.76-33.12L53.76-33.12Q53.44-30.48 52.60-27.76L52.60-27.76L52.60-27.76Q51.76-25.04 50.64-22.20L50.64-22.20L50.64-22.20Q49.52-19.36 48.80-16.48L48.80-16.48L48.80-16.48Q47.84-12.40 48.28-8.04L48.28-8.04L48.28-8.04Q48.72-3.68 51.68-0.16L51.68-0.16L51.68-0.16Q51.92 0.16 51.92 0.16L51.92 0.16L51.92 0.16Q51.84 0.24 51.44 0L51.44 0L51.44 0Q49.12-1.44 47.96-3.48L47.96-3.48L47.96-3.48Q46.80-5.52 46.32-7.76" fill="#7d5753" stroke="none" stroke-width="none" transform="translate(-106.91998291015625,20.98150834194449)" style="fill: rgb(125, 87, 83);"></path></g><g class="path" style="transform: scale(0.91); transform-origin: -67.4933px 1.09008px; animation: 2.22222s linear -1.12558s infinite normal forwards running breath-cb77ee28-b880-418c-803b-001720b61602;"><path d="M49.12-36.08L49.12-36.08L49.12-36.08Q49.28-35.92 49.08-35.84L49.08-35.84L49.08-35.84Q48.88-35.76 48.24-35.60L48.24-35.60L48.24-35.60Q47.20-35.28 45.72-34.40L45.72-34.40L45.72-34.40Q44.24-33.52 42.60-32.16L42.60-32.16L42.60-32.16Q40.96-30.80 39.36-29L39.36-29L39.36-29Q37.76-27.20 36.56-25.12L36.56-25.12L36.56-25.12Q35.36-22.96 34.52-20.88L34.52-20.88L34.52-20.88Q33.68-18.80 33.16-17.08L33.16-17.08L33.16-17.08Q32.64-15.36 32.40-14.12L32.40-14.12L32.40-14.12Q32.16-12.88 32.16-12.40L32.16-12.40L32.16-12.40Q32.16-11.20 32.16-9.88L32.16-9.88L32.16-9.88Q32.16-8.56 32.48-7.52L32.48-7.52L32.48-7.52Q32.80-6.48 33.60-5.92L33.60-5.92L33.60-5.92Q34.40-5.36 36-5.60L36-5.60L36-5.60Q36.08-5.60 36.40-5.72L36.40-5.72L36.40-5.72Q36.72-5.84 37.04-5.96L37.04-5.96L37.04-5.96Q37.36-6.08 37.64-6.16L37.64-6.16L37.64-6.16Q37.92-6.24 38-6.24L38-6.24L38-6.24Q38.08-6.08 37.88-5.84L37.88-5.84L37.88-5.84Q37.68-5.60 37.36-5.32L37.36-5.32L37.36-5.32Q37.04-5.04 36.76-4.80L36.76-4.80L36.76-4.80Q36.48-4.56 36.40-4.48L36.40-4.48L36.40-4.48Q34.40-3.28 33.04-3.76L33.04-3.76L33.04-3.76Q31.68-4.24 30.92-5.56L30.92-5.56L30.92-5.56Q30.16-6.88 29.88-8.68L29.88-8.68L29.88-8.68Q29.60-10.48 29.68-11.92L29.68-11.92L29.68-11.92Q29.84-14.72 30.56-17.48L30.56-17.48L30.56-17.48Q31.28-20.24 32.40-23.04L32.40-23.04L32.40-23.04Q33.28-25.20 35.04-27.48L35.04-27.48L35.04-27.48Q36.80-29.76 39-31.68L39-31.68L39-31.68Q41.20-33.60 43.60-34.84L43.60-34.84L43.60-34.84Q46-36.08 48.24-36.16L48.24-36.16L48.24-36.16Q49.04-36.16 49.12-36.08" fill="#7d5753" stroke="none" stroke-width="none" transform="translate(-106.91998291015625,20.98150834194449)" style="fill: rgb(224, 170, 130);"></path></g><g class="path" style="transform: scale(0.91); transform-origin: -54.9066px 16.4615px; animation: 2.22222s linear -1.09147s infinite normal forwards running breath-cb77ee28-b880-418c-803b-001720b61602;"><path d="M53.84-0.16L53.84-0.16L53.84-0.16Q54 0.08 53.92 0.16L53.92 0.16L53.92 0.16Q53.68 0.16 53.28 0L53.28 0L53.28 0Q53.04-0.16 52-0.96L52-0.96L52-0.96Q50.96-1.76 50.48-3.52L50.48-3.52L50.48-3.52Q50.32-4.16 50.20-5.16L50.20-5.16L50.20-5.16Q50.08-6.16 50.08-7.04L50.08-7.04L50.08-7.04Q50.08-7.92 50.20-8.56L50.20-8.56L50.20-8.56Q50.32-9.20 50.56-9.20L50.56-9.20L50.56-9.20Q50.80-9.20 51.08-8.24L51.08-8.24L51.08-8.24Q51.36-7.28 51.44-7.04L51.44-7.04L51.44-7.04Q51.68-5.92 51.88-5.08L51.88-5.08L51.88-5.08Q52.08-4.24 52.32-3.52L52.32-3.52L52.32-3.52Q52.64-2.64 53.16-1.52L53.16-1.52L53.16-1.52Q53.68-0.40 53.84-0.16" fill="#7d5753" stroke="none" stroke-width="none" transform="translate(-106.91998291015625,20.98150834194449)" style="fill: rgb(31, 20, 24);"></path></g><g class="path" style="transform: scale(0.91); transform-origin: -24.4267px 5.47173px; animation: 2.22222s linear -1.05736s infinite normal forwards running breath-cb77ee28-b880-418c-803b-001720b61602;"><path d="M89.36-27.76L89.36-27.76L89.36-27.76Q89.36-23.76 88.28-19.40L88.28-19.40L88.28-19.40Q87.20-15.04 85.44-10.80L85.44-10.80L85.44-10.80Q83.68-6.56 81.40-2.76L81.40-2.76L81.40-2.76Q79.12 1.04 76.72 3.76L76.72 3.76L76.72 3.76Q75.84 4.72 75.68 4.64L75.68 4.64L75.68 4.64Q75.52 4.56 75.84 3.44L75.84 3.44L75.84 3.44Q76.32 2.16 77.08 0.56L77.08 0.56L77.08 0.56Q77.84-1.04 78.60-2.60L78.60-2.60L78.60-2.60Q79.36-4.16 80.12-5.60L80.12-5.60L80.12-5.60Q80.88-7.04 81.36-8L81.36-8L81.36-8Q81.92-9.20 82.64-11.16L82.64-11.16L82.64-11.16Q83.36-13.12 84.04-15.52L84.04-15.52L84.04-15.52Q84.72-17.92 85.36-20.56L85.36-20.56L85.36-20.56Q86-23.20 86.48-25.64L86.48-25.64L86.48-25.64Q86.96-28.08 87.24-30.12L87.24-30.12L87.24-30.12Q87.52-32.16 87.44-33.44L87.44-33.44L87.44-33.44Q87.36-34.88 87.48-35.32L87.48-35.32L87.48-35.32Q87.60-35.76 87.76-35.64L87.76-35.64L87.76-35.64Q87.92-35.52 88.12-35.12L88.12-35.12L88.12-35.12Q88.32-34.72 88.48-34.40L88.48-34.40L88.48-34.40Q89.04-32.80 89.20-30.80L89.20-30.80L89.20-30.80Q89.36-28.80 89.36-27.76" fill="#7d5753" stroke="none" stroke-width="none" transform="translate(-106.91998291015625,20.98150834194449)" style="fill: rgb(68, 26, 33);"></path></g><g class="path" style="transform: scale(0.91); transform-origin: -38.08px 1.37351px; animation: 2.22222s linear -1.02326s infinite normal forwards running breath-cb77ee28-b880-418c-803b-001720b61602;"><path d="M73.60-5.68L73.60-5.68L73.60-5.68Q73.04-5.04 72.08-4.48L72.08-4.48L72.08-4.48Q71.12-3.92 70.24-3.92L70.24-3.92L70.24-3.92Q68.32-3.92 67.08-5.04L67.08-5.04L67.08-5.04Q65.84-6.16 65.12-7.80L65.12-7.80L65.12-7.80Q64.40-9.44 64.12-11.28L64.12-11.28L64.12-11.28Q63.84-13.12 63.84-14.56L63.84-14.56L63.84-14.56Q63.84-16.72 64.28-19.56L64.28-19.56L64.28-19.56Q64.72-22.40 65.64-25.24L65.64-25.24L65.64-25.24Q66.56-28.08 67.88-30.60L67.88-30.60L67.88-30.60Q69.20-33.12 71.04-34.64L71.04-34.64L71.04-34.64Q71.52-34.96 71.92-35.24L71.92-35.24L71.92-35.24Q72.32-35.52 71.68-34.40L71.68-34.40L71.68-34.40Q71.20-33.52 70.76-32.88L70.76-32.88L70.76-32.88Q70.32-32.24 70.08-31.44L70.08-31.44L70.08-31.44Q68.80-29.12 68.04-26.56L68.04-26.56L68.04-26.56Q67.28-24 66.80-21.36L66.80-21.36L66.80-21.36Q66.08-17.84 66.08-14.32L66.08-14.32L66.08-14.32Q66.08-13.04 66.20-11.52L66.20-11.52L66.20-11.52Q66.32-10 66.80-8.64L66.80-8.64L66.80-8.64Q67.28-7.28 68.28-6.36L68.28-6.36L68.28-6.36Q69.28-5.44 71.04-5.44L71.04-5.44L71.04-5.44Q71.52-5.44 72.16-5.68L72.16-5.68L72.16-5.68Q72.80-5.92 73.20-6.16L73.20-6.16L73.20-6.16Q73.84-6.40 73.84-6.24L73.84-6.24L73.84-6.24Q73.84-6.08 73.60-5.68" fill="#7d5753" stroke="none" stroke-width="none" transform="translate(-106.91998291015625,20.98150834194449)" style="fill: rgb(126, 31, 48);"></path></g><g class="path" style="transform: scale(0.91); transform-origin: -26.16px 19.0086px; animation: 2.22222s linear -0.989147s infinite normal forwards running breath-cb77ee28-b880-418c-803b-001720b61602;"><path d="M91.44-26.40L91.44-26.40L91.44-26.40Q91.76-25.20 91.76-23.60L91.76-23.60L91.76-23.60Q91.76-20.32 90.80-16.36L90.80-16.36L90.80-16.36Q89.84-12.40 88.28-8.16L88.28-8.16L88.28-8.16Q86.72-3.92 84.60 0.40L84.60 0.40L84.60 0.40Q82.48 4.72 80.20 8.72L80.20 8.72L80.20 8.72Q77.92 12.72 75.52 16.20L75.52 16.20L75.52 16.20Q73.12 19.68 70.96 22.24L70.96 22.24L70.96 22.24Q70.88 22.32 70.68 22.56L70.68 22.56L70.68 22.56Q70.48 22.80 70.28 23L70.28 23L70.28 23Q70.08 23.20 69.92 23.28L69.92 23.28L69.92 23.28Q69.76 23.36 69.76 23.04L69.76 23.04L69.76 23.04Q69.76 22.88 70.76 20.92L70.76 20.92L70.76 20.92Q71.76 18.96 73.28 16.04L73.28 16.04L73.28 16.04Q74.80 13.12 76.60 9.72L76.60 9.72L76.60 9.72Q78.40 6.32 80.08 3.20L80.08 3.20L80.08 3.20Q81.76 0.08 83-2.32L83-2.32L83-2.32Q84.24-4.72 84.64-5.60L84.64-5.60L84.64-5.60Q86.96-10.72 88.60-15.88L88.60-15.88L88.60-15.88Q90.24-21.04 90.88-26.56L90.88-26.56L90.88-26.56Q90.96-27.20 91-27.24L91-27.24L91-27.24Q91.04-27.28 91.44-26.40" fill="#7d5753" stroke="none" stroke-width="none" transform="translate(-106.91998291015625,20.98150834194449)" style="fill: rgb(219, 53, 72);"></path></g><g class="path" style="transform: scale(0.91); transform-origin: -33.44px 17.6317px; animation: 2.22222s linear -0.955039s infinite normal forwards running breath-cb77ee28-b880-418c-803b-001720b61602;"><path d="M86.24-32.32L86.24-32.32L86.24-32.32Q86.24-27.84 85-23.24L85-23.24L85-23.24Q83.76-18.64 81.92-14.16L81.92-14.16L81.92-14.16Q80.08-9.68 77.88-5.48L77.88-5.48L77.88-5.48Q75.68-1.28 73.68 2.32L73.68 2.32L73.68 2.32Q70.08 9.04 67.60 15.96L67.60 15.96L67.60 15.96Q65.12 22.88 64.16 30.40L64.16 30.40L64.16 30.40Q64 31.28 63.92 31.12L63.92 31.12L63.92 31.12Q63.84 31.12 63.72 30.68L63.72 30.68L63.72 30.68Q63.60 30.24 63.52 29.72L63.52 29.72L63.52 29.72Q63.44 29.20 63.40 28.64L63.40 28.64L63.40 28.64Q63.36 28.08 63.36 27.68L63.36 27.68L63.36 27.68Q63.36 24.08 64.16 20.40L64.16 20.40L64.16 20.40Q64.96 16.72 66.24 13.20L66.24 13.20L66.24 13.20Q67.52 9.68 69.08 6.32L69.08 6.32L69.08 6.32Q70.64 2.96 72.24 0L72.24 0L70.08 0L70.08 0Q67.68 0 65.92-1.12L65.92-1.12L65.92-1.12Q64.16-2.24 63.04-4.08L63.04-4.08L63.04-4.08Q61.92-5.92 61.32-8.40L61.32-8.40L61.32-8.40Q60.72-10.88 60.72-13.60L60.72-13.60L60.72-13.60Q60.72-14.64 60.96-16.52L60.96-16.52L60.96-16.52Q61.20-18.40 61.68-20.44L61.68-20.44L61.68-20.44Q62.16-22.48 62.88-24.44L62.88-24.44L62.88-24.44Q63.60-26.40 64.48-27.60L64.48-27.60L64.48-27.60Q65.12-28.48 65.20-28.32L65.20-28.32L65.20-28.32Q65.28-28.16 65.04-27.28L65.04-27.28L65.04-27.28Q64-24.24 63.40-20.96L63.40-20.96L63.40-20.96Q62.80-17.68 62.80-14.48L62.80-14.48L62.80-14.48Q62.80-12.64 63.04-10.48L63.04-10.48L63.04-10.48Q63.28-8.32 64.04-6.52L64.04-6.52L64.04-6.52Q64.80-4.72 66.24-3.52L66.24-3.52L66.24-3.52Q67.68-2.32 70.16-2.32L70.16-2.32L70.16-2.32Q71.92-2.32 73.36-3.52L73.36-3.52L73.36-3.52Q74.80-4.72 75.96-6.48L75.96-6.48L75.96-6.48Q77.12-8.24 78.04-10.32L78.04-10.32L78.04-10.32Q78.96-12.40 79.68-14.16L79.68-14.16L79.68-14.16Q78.88-13.04 77.80-11.96L77.80-11.96L77.80-11.96Q76.72-10.88 75.52-10L75.52-10L75.52-10Q74.32-9.12 73.12-8.56L73.12-8.56L73.12-8.56Q71.92-8 70.80-8L70.80-8L70.80-8Q69.68-8 69.04-8.72L69.04-8.72L69.04-8.72Q68.40-9.44 68.04-10.52L68.04-10.52L68.04-10.52Q67.68-11.60 67.60-12.72L67.60-12.72L67.60-12.72Q67.52-13.84 67.52-14.72L67.52-14.72L67.52-14.72Q67.52-17.60 67.88-20.52L67.88-20.52L67.88-20.52Q68.24-23.44 69.04-26.28L69.04-26.28L69.04-26.28Q69.84-29.12 71.16-31.72L71.16-31.72L71.16-31.72Q72.48-34.32 74.40-36.48L74.40-36.48L74.40-36.48Q74.56-36.72 74.80-36.92L74.80-36.92L74.80-36.92Q75.04-37.12 75.24-37.20L75.24-37.20L75.24-37.20Q75.44-37.28 75.44-37.16L75.44-37.16L75.44-37.16Q75.44-37.04 75.12-36.48L75.12-36.48L75.12-36.48Q72.80-32.16 71.32-26.88L71.32-26.88L71.32-26.88Q69.84-21.60 69.84-16.64L69.84-16.64L69.84-16.64Q69.84-16.16 69.88-15.08L69.88-15.08L69.88-15.08Q69.92-14 70.12-12.88L70.12-12.88L70.12-12.88Q70.32-11.76 70.76-10.92L70.76-10.92L70.76-10.92Q71.20-10.08 71.92-10.08L71.92-10.08L71.92-10.08Q72.16-10.08 72.56-10.32L72.56-10.32L72.56-10.32Q75.92-12 78.24-14.96L78.24-14.96L78.24-14.96Q80.56-17.92 82.08-21.56L82.08-21.56L82.08-21.56Q83.60-25.20 84.28-29.08L84.28-29.08L84.28-29.08Q84.96-32.96 85.04-36.48L85.04-36.48L85.04-36.48Q85.04-37.76 85.20-37.84L85.20-37.84L85.20-37.84Q85.36-37.92 85.76-36.48L85.76-36.48L85.76-36.48Q86.24-34.16 86.24-32.32" fill="#7d5753" stroke="none" stroke-width="none" transform="translate(-106.91998291015625,20.98150834194449)" style="fill: rgb(74, 64, 65);"></path></g><g class="path" style="transform: scale(0.91); transform-origin: -38.7066px 44.5415px; animation: 2.22222s linear -0.92093s infinite normal forwards running breath-cb77ee28-b880-418c-803b-001720b61602;"><path d="M70.96 15.04L70.96 15.04L70.96 15.04Q70.96 15.60 70.60 16.88L70.60 16.88L70.60 16.88Q70.24 18.16 69.76 19.60L69.76 19.60L69.76 19.60Q69.28 21.04 68.80 22.40L68.80 22.40L68.80 22.40Q68.32 23.76 68.08 24.48L68.08 24.48L68.08 24.48Q67.44 26.24 67.12 27.96L67.12 27.96L67.12 27.96Q66.80 29.68 66.40 31.52L66.40 31.52L66.40 31.52Q66.40 31.68 66.32 32L66.32 32L66.32 32Q66.24 32.32 66 32.32L66 32.32L66 32.32Q65.84 32.32 65.76 31.92L65.76 31.92L65.76 31.92Q65.68 31.52 65.68 31.36L65.68 31.36L65.68 31.36Q65.52 30.72 65.48 29.60L65.48 29.60L65.48 29.60Q65.44 28.48 65.52 27.84L65.52 27.84L65.52 27.84Q65.76 25.84 66.40 23.56L66.40 23.56L66.40 23.56Q67.04 21.28 67.80 19.32L67.80 19.32L67.80 19.32Q68.56 17.36 69.36 16.08L69.36 16.08L69.36 16.08Q70.16 14.80 70.72 14.80L70.72 14.80L70.72 14.80Q70.96 14.80 70.96 15.04" fill="#7d5753" stroke="none" stroke-width="none" transform="translate(-106.91998291015625,20.98150834194449)" style="fill: rgb(44, 29, 30);"></path></g><g class="path" style="transform: scale(0.91); transform-origin: 12.6197px -17.9738px; animation: 2.22222s linear -0.886822s infinite normal forwards running breath-cb77ee28-b880-418c-803b-001720b61602;"><path d="M122.80-40.64L122.80-40.64L122.80-40.64Q121.68-36.32 120.04-31.68L120.04-31.68L120.04-31.68Q118.40-27.04 116.64-22.88L116.64-22.88L116.64-22.88Q116.56-22.72 116.24-22.12L116.24-22.12L116.24-22.12Q115.92-21.52 115.76-21.60L115.76-21.60L115.76-21.60Q115.52-21.60 115.56-22.28L115.56-22.28L115.56-22.28Q115.60-22.96 115.68-23.20L115.68-23.20L115.68-23.20Q115.76-24.16 116.04-25.60L116.04-25.60L116.04-25.60Q116.32-27.04 116.60-28.56L116.60-28.56L116.60-28.56Q116.88-30.08 117.24-31.52L117.24-31.52L117.24-31.52Q117.60-32.96 117.92-34L117.92-34L117.92-34Q118.16-34.72 118.80-37.60L118.80-37.60L118.80-37.60Q119.44-40.48 120.04-44L120.04-44L120.04-44Q120.64-47.52 120.96-50.80L120.96-50.80L120.96-50.80Q121.28-54.08 120.96-55.60L120.96-55.60L120.96-55.60Q120.80-56.32 120.96-56.32L120.96-56.32L120.96-56.32Q121.12-56.32 121.24-56.12L121.24-56.12L121.24-56.12Q121.36-55.92 121.52-55.76L121.52-55.76L121.52-55.76Q122.40-54.40 122.88-52.48L122.88-52.48L122.88-52.48Q123.36-50.56 123.48-48.44L123.48-48.44L123.48-48.44Q123.60-46.32 123.40-44.24L123.40-44.24L123.40-44.24Q123.20-42.16 122.80-40.64" fill="#7d5753" stroke="none" stroke-width="none" transform="translate(-106.91998291015625,20.98150834194449)" style="fill: rgb(125, 87, 83);"></path></g><g class="path" style="transform: scale(0.91); transform-origin: 16.8256px -10.9874px; animation: 2.22222s linear -0.852713s infinite normal forwards running breath-cb77ee28-b880-418c-803b-001720b61602;"><path d="M119.20-57.76L119.20-57.76L119.20-57.76Q120.32-53.92 119.92-49.80L119.92-49.80L119.92-49.80Q119.52-45.68 118.36-41.36L118.36-41.36L118.36-41.36Q117.20-37.04 115.76-32.56L115.76-32.56L115.76-32.56Q114.32-28.08 113.28-23.68L113.28-23.68L113.28-23.68Q112.32-19.52 111.96-15.44L111.96-15.44L111.96-15.44Q111.60-11.36 112.48-7.12L112.48-7.12L112.48-7.12Q112.72-7.52 113-7.68L113-7.68L113-7.68Q113.28-7.84 113.60-8.08L113.60-8.08L113.60-8.08Q113.60-9.04 113.60-10.04L113.60-10.04L113.60-10.04Q113.60-11.04 113.68-11.84L113.68-11.84L113.68-11.84Q113.76-12.64 113.92-13.12L113.92-13.12L113.92-13.12Q114.08-13.60 114.40-13.60L114.40-13.60L114.40-13.60Q114.48-13.60 114.60-13.20L114.60-13.20L114.60-13.20Q114.72-12.80 114.80-12.28L114.80-12.28L114.80-12.28Q114.88-11.76 114.96-11.24L114.96-11.24L114.96-11.24Q115.04-10.72 115.04-10.56L115.04-10.56L115.04-10.56Q115.12-9.92 115.12-9.60L115.12-9.60L115.12-9.60Q115.12-9.28 115.28-8.88L115.28-8.88L115.28-8.88Q115.44-8.96 115.80-9.08L115.80-9.08L115.80-9.08Q116.16-9.20 116.56-9.28L116.56-9.28L116.56-9.28Q116.96-15.04 118.40-20.76L118.40-20.76L118.40-20.76Q119.84-26.48 121.60-32.32L121.60-32.32L121.60-32.32Q122.72-36.08 123.72-40.04L123.72-40.04L123.72-40.04Q124.72-44 124.88-48.56L124.88-48.56L124.88-48.56Q124.88-48.96 125.12-48.96L125.12-48.96L125.12-48.96Q125.20-48.96 125.20-48.80L125.20-48.80L125.20-48.80Q125.20-48.64 125.36-48.48L125.36-48.48L125.36-48.48Q126.24-46.32 126-42.84L126-42.84L126-42.84Q125.76-39.36 125.04-35.64L125.04-35.64L125.04-35.64Q124.32-31.92 123.36-28.44L123.36-28.44L123.36-28.44Q122.40-24.96 121.92-22.88L121.92-22.88L121.92-22.88Q121.04-19.52 119.92-16.04L119.92-16.04L119.92-16.04Q118.80-12.56 117.76-9.52L117.76-9.52L117.76-9.52Q119.28-9.76 121-9.84L121-9.84L121-9.84Q122.72-9.92 124.16-9.88L124.16-9.88L124.16-9.88Q125.60-9.84 126.68-9.80L126.68-9.80L126.68-9.80Q127.76-9.76 128.08-9.76L128.08-9.76L128.08-9.76Q130.40-9.68 132.88-9.20L132.88-9.20L132.88-9.20Q135.36-8.72 137.20-8.40L137.20-8.40L137.20-8.40Q137.84-8.24 137.84-8.08L137.84-8.08L137.84-8.08Q137.84-7.92 137.60-7.84L137.60-7.84L137.60-7.84Q137.36-7.76 137.20-7.68L137.20-7.68L137.20-7.68Q133.68-6.56 130.12-6.76L130.12-6.76L130.12-6.76Q126.56-6.96 122.72-7.36L122.72-7.36L122.72-7.36Q121.28-7.52 119.72-7.60L119.72-7.60L119.72-7.60Q118.16-7.68 116.64-7.56L116.64-7.56L116.64-7.56Q115.12-7.44 113.72-7L113.72-7L113.72-7Q112.32-6.56 111.20-5.60L111.20-5.60L111.20-5.60Q109.44-10.16 109.68-15.20L109.68-15.20L109.68-15.20Q109.92-20.24 111.12-25.28L111.12-25.28L111.12-25.28Q112.16-29.68 113.52-34.04L113.52-34.04L113.52-34.04Q114.88-38.40 116.04-42.52L116.04-42.52L116.04-42.52Q117.20-46.64 117.96-50.48L117.96-50.48L117.96-50.48Q118.72-54.32 118.64-57.84L118.64-57.84L118.64-57.84Q118.80-58.32 118.88-58.32L118.88-58.32L118.88-58.32Q118.96-58.40 119.04-58.12L119.04-58.12L119.04-58.12Q119.12-57.84 119.20-57.76" fill="#7d5753" stroke="none" stroke-width="none" transform="translate(-106.91998291015625,20.98150834194449)" style="fill: rgb(224, 170, 130);"></path></g><g class="path" style="transform: scale(0.91); transform-origin: 31.2019px 13.8861px; animation: 2.22222s linear -0.818605s infinite normal forwards running breath-cb77ee28-b880-418c-803b-001720b61602;"><path d="M141.52-10L141.52-10L141.52-10Q141.68-10.24 141.80-9.96L141.80-9.96L141.80-9.96Q141.92-9.68 141.76-9.28L141.76-9.28L141.76-9.28Q141.28-8.08 140.84-7.20L140.84-7.20L140.84-7.20Q140.40-6.32 139.12-5.44L139.12-5.44L139.12-5.44Q138.56-5.04 137.76-4.72L137.76-4.72L137.76-4.72Q136.96-4.40 136.24-4.24L136.24-4.24L136.24-4.24Q135.52-4.08 134.96-4.08L134.96-4.08L134.96-4.08Q134.40-4.08 134.40-4.40L134.40-4.40L134.40-4.40Q134.32-4.64 135.08-5.04L135.08-5.04L135.08-5.04Q135.84-5.44 136.16-5.60L136.16-5.60L136.16-5.60Q136.80-6 137.44-6.36L137.44-6.36L137.44-6.36Q138.08-6.72 138.72-7.20L138.72-7.20L138.72-7.20Q139.36-7.84 140.12-8.48L140.12-8.48L140.12-8.48Q140.88-9.12 141.52-10" fill="#7d5753" stroke="none" stroke-width="none" transform="translate(-106.91998291015625,20.98150834194449)" style="fill: rgb(31, 20, 24);"></path></g><g class="path" style="transform: scale(0.91); transform-origin: 18.3334px 17.0933px; animation: 2.22222s linear -0.784496s infinite normal forwards running breath-cb77ee28-b880-418c-803b-001720b61602;"><path d="M141.92-7.60L141.92-7.60L141.92-7.60Q142.16-8 142.16-7.68L142.16-7.68L142.16-7.68Q142.16-7.36 142.08-7.20L142.08-7.20L142.08-7.20Q140.88-4.48 139.32-3.04L139.32-3.04L139.32-3.04Q137.76-1.60 135.96-0.92L135.96-0.92L135.96-0.92Q134.16-0.24 132.20-0.12L132.20-0.12L132.20-0.12Q130.24 0 128.32 0L128.32 0L128.32 0Q122.96-0.08 117.88-0.44L117.88-0.44L117.88-0.44Q112.80-0.80 108.72 0L108.72 0L108.72 0Q108.56 0 108.40 0.04L108.40 0.04L108.40 0.04Q108.24 0.08 108.56-0.16L108.56-0.16L108.56-0.16Q110.48-2.08 112.88-2.48L112.88-2.48L112.88-2.48Q115.28-2.88 117.96-2.60L117.96-2.60L117.96-2.60Q120.64-2.32 123.44-1.76L123.44-1.76L123.44-1.76Q126.24-1.20 128.88-1.12L128.88-1.12L128.88-1.12Q132.24-1.04 135.80-2.52L135.80-2.52L135.80-2.52Q139.36-4 141.92-7.60" fill="#7d5753" stroke="none" stroke-width="none" transform="translate(-106.91998291015625,20.98150834194449)" style="fill: rgb(68, 26, 33);"></path></g><g class="path" style="transform: scale(0.91); transform-origin: 12.52px 17.035px; animation: 2.22222s linear -0.750388s infinite normal forwards running breath-cb77ee28-b880-418c-803b-001720b61602;"><path d="M129.68-3.92L129.68-3.92L129.68-3.92Q129.68-3.76 129.36-3.68L129.36-3.68L129.36-3.68Q129.04-3.60 128.88-3.60L128.88-3.60L128.88-3.60Q127.68-3.36 125.64-3.28L125.64-3.28L125.64-3.28Q123.60-3.20 121.92-3.36L121.92-3.36L121.92-3.36Q121.52-3.36 120.08-3.48L120.08-3.48L120.08-3.48Q118.64-3.60 116.76-3.56L116.76-3.56L116.76-3.56Q114.88-3.52 112.96-3.12L112.96-3.12L112.96-3.12Q111.04-2.72 109.68-1.76L109.68-1.76L109.68-1.76Q109.36-1.44 109.20-1.68L109.20-1.68L109.20-1.68Q109.20-1.76 109.32-2.04L109.32-2.04L109.32-2.04Q109.44-2.32 109.52-2.40L109.52-2.40L109.52-2.40Q110.64-4.16 113-5.08L113-5.08L113-5.08Q115.36-6 117.76-6.24L117.76-6.24L117.76-6.24Q120.32-6.48 123.28-5.96L123.28-5.96L123.28-5.96Q126.24-5.44 128.88-4.64L128.88-4.64L128.88-4.64Q128.96-4.64 129.32-4.40L129.32-4.40L129.32-4.40Q129.68-4.16 129.68-3.92" fill="#7d5753" stroke="none" stroke-width="none" transform="translate(-106.91998291015625,20.98150834194449)" style="fill: rgb(126, 31, 48);"></path></g><g class="path" style="transform: scale(0.91); transform-origin: 46.5829px -4.41849px; animation: 2.22222s linear -0.716279s infinite normal forwards running breath-cb77ee28-b880-418c-803b-001720b61602;"><path d="M156.32-26.40L156.32-26.40L156.32-26.40Q156.56-27.44 156.60-28.80L156.60-28.80L156.60-28.80Q156.64-30.16 156.40-31.60L156.40-31.60L156.40-31.60Q156.16-33.04 155.56-34.36L155.56-34.36L155.56-34.36Q154.96-35.68 154-36.64L154-36.64L154-36.64Q153.52-36.96 153.44-36.96L153.44-36.96L153.44-36.96Q153.12-36.96 153.44-36.48L153.44-36.48L153.44-36.48Q153.92-35.44 153.80-33.24L153.80-33.24L153.80-33.24Q153.68-31.04 153.28-28.68L153.28-28.68L153.28-28.68Q152.88-26.32 152.44-24.44L152.44-24.44L152.44-24.44Q152-22.56 151.92-22.16L151.92-22.16L151.92-22.16Q151.36-20.72 150.92-18.56L150.92-18.56L150.92-18.56Q150.48-16.40 150.48-15.04L150.48-15.04L150.48-15.04Q150.40-14.88 150.40-14.40L150.40-14.40L150.40-14.40Q150.40-13.92 150.64-13.84L150.64-13.84L150.64-13.84Q150.72-13.84 150.96-14.24L150.96-14.24L150.96-14.24Q151.20-14.64 151.36-14.80L151.36-14.80L151.36-14.80Q152.80-17.36 154.12-20.40L154.12-20.40L154.12-20.40Q155.44-23.44 156.32-26.40" fill="#7d5753" stroke="none" stroke-width="none" transform="translate(-106.91998291015625,20.98150834194449)" style="fill: rgb(219, 53, 72);"></path></g><g class="path" style="transform: scale(0.91); transform-origin: 48.87px 3.10151px; animation: 2.22222s linear -0.682171s infinite normal forwards running breath-cb77ee28-b880-418c-803b-001720b61602;"><path d="M156.64-14.32L156.64-14.32L156.64-14.32Q156.96-15.76 157.68-18.04L157.68-18.04L157.68-18.04Q158.40-20.32 158.88-22.76L158.88-22.76L158.88-22.76Q159.36-25.20 159.36-27.56L159.36-27.56L159.36-27.56Q159.36-29.92 158.40-31.44L158.40-31.44L158.40-31.44Q158.08-31.76 157.92-31.76L157.92-31.76L157.92-31.76Q157.76-31.76 157.84-31.44L157.84-31.44L157.84-31.44Q157.84-28.40 157.16-25.80L157.16-25.80L157.16-25.80Q156.48-23.20 155.68-20.72L155.68-20.72L155.68-20.72Q154.32-16.64 153.20-12.76L153.20-12.76L153.20-12.76Q152.08-8.88 152.24-4.80L152.24-4.80L152.24-4.80Q152.24-4.56 152.28-4.28L152.28-4.28L152.28-4.28Q152.32-4 152.56-4L152.56-4L152.56-4Q152.72-4 152.80-4.16L152.80-4.16L152.80-4.16Q152.88-4.32 153.04-4.64L153.04-4.64L153.04-4.64Q153.84-6.56 154.88-9.16L154.88-9.16L154.88-9.16Q155.92-11.76 156.64-14.32" fill="#7d5753" stroke="none" stroke-width="none" transform="translate(-106.91998291015625,20.98150834194449)" style="fill: rgb(74, 64, 65);"></path></g><g class="path" style="transform: scale(0.91); transform-origin: 41.8557px 1.88373px; animation: 2.22222s linear -0.648062s infinite normal forwards running breath-cb77ee28-b880-418c-803b-001720b61602;"><path d="M150.96 0L150.96 0L150.96 0Q149.44-1.60 148.64-3.56L148.64-3.56L148.64-3.56Q147.84-5.52 147.52-7.56L147.52-7.56L147.52-7.56Q147.20-9.60 147.36-11.68L147.36-11.68L147.36-11.68Q147.52-13.76 148-15.60L148-15.60L148-15.60Q148.72-18.48 149.84-21.36L149.84-21.36L149.84-21.36Q150.96-24.24 151.76-27.08L151.76-27.08L151.76-27.08Q152.56-29.92 152.68-32.68L152.68-32.68L152.68-32.68Q152.80-35.44 151.52-38.08L151.52-38.08L151.52-38.08Q151.28-38.48 151.20-38.48L151.20-38.48L151.20-38.48Q151.12-38.48 151.12-38.36L151.12-38.36L151.12-38.36Q151.12-38.24 151.20-38.16L151.20-38.16L151.20-38.16Q151.44-35.76 150.88-33.20L150.88-33.20L150.88-33.20Q150.32-30.64 149.44-27.96L149.44-27.96L149.44-27.96Q148.56-25.28 147.48-22.44L147.48-22.44L147.48-22.44Q146.40-19.60 145.68-16.64L145.68-16.64L145.68-16.64Q145.12-14.48 144.92-12.24L144.92-12.24L144.92-12.24Q144.72-10 145.20-7.80L145.20-7.80L145.20-7.80Q145.68-5.60 146.96-3.60L146.96-3.60L146.96-3.60Q148.24-1.60 150.64 0.08L150.64 0.08L150.64 0.08Q150.80 0.24 151.04 0.28L151.04 0.28L151.04 0.28Q151.28 0.32 150.96 0" fill="#7d5753" stroke="none" stroke-width="none" transform="translate(-106.91998291015625,20.98150834194449)" style="fill: rgb(44, 29, 30);"></path></g><g class="path" style="transform: scale(0.91); transform-origin: 44.4667px 16.8215px; animation: 2.22222s linear -0.613953s infinite normal forwards running breath-cb77ee28-b880-418c-803b-001720b61602;"><path d="M151.60-3.04L151.60-3.04L151.60-3.04Q151.36-3.68 151.08-4.64L151.08-4.64L151.08-4.64Q150.80-5.60 150.64-6.48L150.64-6.48L150.64-6.48Q150.48-6.80 150.24-7.68L150.24-7.68L150.24-7.68Q150-8.56 149.84-8.56L149.84-8.56L149.84-8.56Q149.52-8.56 149.40-8L149.40-8L149.40-8Q149.28-7.44 149.28-6.60L149.28-6.60L149.28-6.60Q149.28-5.76 149.40-4.84L149.40-4.84L149.40-4.84Q149.52-3.92 149.76-3.28L149.76-3.28L149.76-3.28Q150.24-1.68 150.92-1.04L150.92-1.04L150.92-1.04Q151.60-0.40 152.72 0L152.72 0L152.72 0Q153.20 0.24 153.44 0.24L153.44 0.24L153.44 0.24Q153.52 0.24 153.48 0.12L153.48 0.12L153.48 0.12Q153.44 0 153.36 0L153.36 0L153.36 0Q152.80-0.64 152.36-1.36L152.36-1.36L152.36-1.36Q151.92-2.08 151.60-3.04" fill="#7d5753" stroke="none" stroke-width="none" transform="translate(-106.91998291015625,20.98150834194449)" style="fill: rgb(125, 87, 83);"></path></g><g class="path" style="transform: scale(0.91); transform-origin: 52.44px -28.9385px; animation: 2.22222s linear -0.579845s infinite normal forwards running breath-cb77ee28-b880-418c-803b-001720b61602;"><path d="M157.84-44.40L157.84-44.40L157.84-44.40Q157.44-44.40 156.60-44.52L156.60-44.52L156.60-44.52Q155.76-44.64 155.76-45.28L155.76-45.28L155.76-45.28Q155.76-45.52 156.48-45.88L156.48-45.88L156.48-45.88Q157.20-46.24 158.08-46.92L158.08-46.92L158.08-46.92Q158.96-47.60 159.68-48.68L159.68-48.68L159.68-48.68Q160.40-49.76 160.40-51.44L160.40-51.44L160.40-51.44Q160.40-53.52 159.60-54.56L159.60-54.56L159.60-54.56Q159.44-54.80 159.20-55.08L159.20-55.08L159.20-55.08Q158.96-55.36 159.04-55.44L159.04-55.44L159.04-55.44Q159.20-55.44 159.40-55.32L159.40-55.32L159.40-55.32Q159.60-55.20 159.68-55.12L159.68-55.12L159.68-55.12Q161.28-54.24 162.12-52.84L162.12-52.84L162.12-52.84Q162.96-51.44 162.96-50.16L162.96-50.16L162.96-50.16Q162.96-47.60 161.76-46L161.76-46L161.76-46Q160.56-44.40 157.84-44.40" fill="#7d5753" stroke="none" stroke-width="none" transform="translate(-106.91998291015625,20.98150834194449)" style="fill: rgb(224, 170, 130);"></path></g><g class="path" style="transform: scale(0.91); transform-origin: 49.4px -30.7674px; animation: 2.22222s linear -0.545736s infinite normal forwards running breath-cb77ee28-b880-418c-803b-001720b61602;"><path d="M154.88-47.60L154.88-47.60L154.88-47.60Q153.92-47.20 153.92-48.08L153.92-48.08L153.92-48.08Q153.92-48.72 154.40-49.32L154.40-49.32L154.40-49.32Q154.88-49.92 155.32-50.64L155.32-50.64L155.32-50.64Q155.76-51.36 155.92-52.28L155.92-52.28L155.92-52.28Q156.08-53.20 155.44-54.56L155.44-54.56L155.44-54.56Q155.28-54.96 154.88-55.44L154.88-55.44L154.88-55.44Q154.48-55.92 154.64-56L154.64-56L154.64-56Q154.80-56.08 155.32-55.88L155.32-55.88L155.32-55.88Q155.84-55.68 156-55.60L156-55.60L156-55.60Q157.36-54.96 158.04-53.68L158.04-53.68L158.04-53.68Q158.72-52.40 158.72-51.44L158.72-51.44L158.72-51.44Q158.72-49.92 157.48-48.92L157.48-48.92L157.48-48.92Q156.24-47.92 154.88-47.60" fill="#7d5753" stroke="none" stroke-width="none" transform="translate(-106.91998291015625,20.98150834194449)" style="fill: rgb(31, 20, 24);"></path></g><g class="path" style="transform: scale(0.91); transform-origin: 46.6px -30.9785px; animation: 2.22222s linear -0.511628s infinite normal forwards running breath-cb77ee28-b880-418c-803b-001720b61602;"><path d="M152.56-51.92L152.56-51.92L152.56-51.92Q152.56-52.32 152.80-52.84L152.80-52.84L152.80-52.84Q153.04-53.36 153.60-53.36L153.60-53.36L153.60-53.36Q154-53.36 154.24-52.84L154.24-52.84L154.24-52.84Q154.48-52.32 154.48-51.92L154.48-51.92L154.48-51.92Q154.48-51.60 154.24-51.08L154.24-51.08L154.24-51.08Q154-50.56 153.60-50.56L153.60-50.56L153.60-50.56Q153.04-50.56 152.80-51.04L152.80-51.04L152.80-51.04Q152.56-51.52 152.56-51.92" fill="#7d5753" stroke="none" stroke-width="none" transform="translate(-106.91998291015625,20.98150834194449)" style="fill: rgb(68, 26, 33);"></path></g><g class="path" style="transform: scale(0.91); transform-origin: 70.2px -12.0265px; animation: 2.22222s linear -0.477519s infinite normal forwards running breath-cb77ee28-b880-418c-803b-001720b61602;"><path d="M183.60-35.52L183.60-35.52L183.60-35.52Q183.68-35.44 183.68-35.16L183.68-35.16L183.68-35.16Q183.68-34.88 183.60-34.72L183.60-34.72L183.60-34.72Q182.88-32.40 181.12-31.44L181.12-31.44L181.12-31.44Q179.36-30.48 178-30.48L178-30.48L178-30.48Q176.32-30.48 174.56-30.76L174.56-30.76L174.56-30.76Q172.80-31.04 171.20-32.24L171.20-32.24L171.20-32.24Q171.04-32.40 170.80-32.56L170.80-32.56L170.80-32.56Q170.56-32.72 170.56-32.88L170.56-32.88L170.56-32.88Q170.56-33.12 170.80-33.24L170.80-33.24L170.80-33.24Q171.04-33.36 171.20-33.44L171.20-33.44L171.20-33.44Q171.92-33.60 173.08-33.72L173.08-33.72L173.08-33.72Q174.24-33.84 175.36-33.68L175.36-33.68L175.36-33.68Q176.16-33.52 177.28-33.52L177.28-33.52L177.28-33.52Q178.40-33.52 179.56-33.68L179.56-33.68L179.56-33.68Q180.72-33.84 181.68-34.20L181.68-34.20L181.68-34.20Q182.64-34.56 183.12-35.28L183.12-35.28L183.12-35.28Q183.36-35.60 183.60-35.52" fill="#7d5753" stroke="none" stroke-width="none" transform="translate(-106.91998291015625,20.98150834194449)" style="fill: rgb(126, 31, 48);"></path></g><g class="path" style="transform: scale(0.91); transform-origin: 66.34px -21.5202px; animation: 2.22222s linear -0.443411s infinite normal forwards running breath-cb77ee28-b880-418c-803b-001720b61602;"><path d="M184.16-38L184.16-38L183.92-37.60L183.92-37.60Q182.56-35.84 181.04-35.32L181.04-35.32L181.04-35.32Q179.52-34.80 177.84-34.88L177.84-34.88L177.84-34.88Q176.16-34.96 174.44-35.32L174.44-35.32L174.44-35.32Q172.72-35.68 171.04-35.76L171.04-35.76L171.04-35.76Q168.80-35.84 166.56-34.40L166.56-34.40L166.56-34.40Q164.32-32.96 162.72-29.36L162.72-29.36L162.72-29.36Q162.48-28.88 162.40-29.16L162.40-29.16L162.40-29.16Q162.32-29.44 162.40-29.68L162.40-29.68L162.40-29.68Q163.04-32.08 163.92-33.68L163.92-33.68L163.92-33.68Q164.80-35.28 165.80-36.28L165.80-36.28L165.80-36.28Q166.80-37.28 167.92-37.76L167.92-37.76L167.92-37.76Q169.04-38.24 170.24-38.40L170.24-38.40L170.24-38.40Q171.60-42.96 172.36-47.32L172.36-47.32L172.36-47.32Q173.12-51.68 172.48-55.60L172.48-55.60L172.48-55.60Q172.48-55.92 172.48-55.92L172.48-55.92L172.48-55.92Q172.64-56 172.80-55.84L172.80-55.84L172.80-55.84Q172.96-55.68 172.96-55.60L172.96-55.60L172.96-55.60Q174.72-51.76 174.40-47.40L174.40-47.40L174.40-47.40Q174.08-43.04 172.80-38.24L172.80-38.24L172.80-38.24Q173.20-38.16 173.44-38.16L173.44-38.16L173.44-38.16Q173.68-38.16 174-38.16L174-38.16L174-38.16Q174.40-40.24 174.76-42.60L174.76-42.60L174.76-42.60Q175.12-44.96 175.32-47.12L175.32-47.12L175.32-47.12Q175.52-49.28 175.44-51.04L175.44-51.04L175.44-51.04Q175.36-52.80 174.88-53.68L174.88-53.68L174.88-53.68Q174.64-54.40 174.88-54.40L174.88-54.40L174.88-54.40Q175.04-54.40 175.12-54.24L175.12-54.24L175.12-54.24Q175.20-54.08 175.36-53.92L175.36-53.92L175.36-53.92Q176.48-52.80 177.12-50.88L177.12-50.88L177.12-50.88Q177.76-48.96 178-46.80L178-46.80L178-46.80Q178.24-44.64 178.16-42.52L178.16-42.52L178.16-42.52Q178.08-40.40 177.68-38.80L177.68-38.80L177.36-37.52L177.36-37.52Q177.60-37.36 177.84-37.36L177.84-37.36L177.84-37.36Q178.08-37.36 178.32-37.28L178.32-37.28L178.32-37.28Q178.80-39.68 179.16-42.08L179.16-42.08L179.16-42.08Q179.52-44.48 179.44-47.12L179.44-47.12L179.44-47.12Q179.44-47.68 179.52-47.68L179.52-47.68L179.52-47.68Q179.68-47.68 179.76-47.44L179.76-47.44L179.76-47.44Q179.84-47.20 179.92-47.04L179.92-47.04L179.92-47.04Q180.88-45.28 180.84-42.64L180.84-42.64L180.84-42.64Q180.80-40 180.40-37.04L180.40-37.04L180.40-37.04Q182.16-37.04 183.76-38L183.76-38L183.76-38Q184.16-38.24 184.16-38" fill="#7d5753" stroke="none" stroke-width="none" transform="translate(-106.91998291015625,20.98150834194449)" style="fill: rgb(219, 53, 72);"></path></g><g class="path" style="transform: scale(0.91); transform-origin: 58.26px -8.76249px; animation: 2.22222s linear -0.409302s infinite normal forwards running breath-cb77ee28-b880-418c-803b-001720b61602;"><path d="M167.60-32.56L167.60-32.56L167.60-32.56Q167.60-32.16 167.16-31.76L167.16-31.76L167.16-31.76Q166.72-31.36 166.48-31.20L166.48-31.20L166.48-31.20Q166.08-30.88 165.56-30.44L165.56-30.44L165.56-30.44Q165.04-30 164.64-29.52L164.64-29.52L164.64-29.52Q164.24-28.88 163.88-28.40L163.88-28.40L163.88-28.40Q163.52-27.92 163.28-27.04L163.28-27.04L163.28-27.04Q163.20-26.88 163.08-26.76L163.08-26.76L163.08-26.76Q162.96-26.64 162.88-26.72L162.88-26.72L162.88-26.72Q162.64-26.96 162.88-27.76L162.88-27.76L162.88-27.76Q163.20-28.96 163.52-29.72L163.52-29.72L163.52-29.72Q163.84-30.48 164.72-31.36L164.72-31.36L164.72-31.36Q165.04-31.68 165.52-32L165.52-32L165.52-32Q166-32.32 166.48-32.56L166.48-32.56L166.48-32.56Q166.96-32.80 167.28-32.80L167.28-32.80L167.28-32.80Q167.60-32.80 167.60-32.56" fill="#7d5753" stroke="none" stroke-width="none" transform="translate(-106.91998291015625,20.98150834194449)" style="fill: rgb(74, 64, 65);"></path></g><g class="path" style="transform: scale(0.91); transform-origin: 65.9609px 5.95437px; animation: 2.22222s linear -0.375194s infinite normal forwards running breath-cb77ee28-b880-418c-803b-001720b61602;"><path d="M173.84-0.40L173.84-0.40L173.84-0.40Q174.24-0.56 174.16-0.32L174.16-0.32L174.16-0.32Q174.08-0.08 173.92 0L173.92 0L173.92 0Q172.48 0.48 170.88-0.16L170.88-0.16L170.88-0.16Q169.28-0.80 167.92-2.16L167.92-2.16L167.92-2.16Q166.56-3.52 165.60-5.32L165.60-5.32L165.60-5.32Q164.64-7.12 164.40-8.88L164.40-8.88L164.40-8.88Q164-12.64 164.32-16.16L164.32-16.16L164.32-16.16Q164.64-19.68 165.52-23.12L165.52-23.12L166.88-28.16L166.88-28.16Q166.40-28.16 165.92-28.40L165.92-28.40L165.92-28.40Q165.36-28.56 165.36-28.80L165.36-28.80L165.36-28.80Q165.36-28.96 165.92-29.28L165.92-29.28L165.92-29.28Q168.16-30.40 170.44-30.24L170.44-30.24L170.44-30.24Q172.72-30.08 175.04-29.68L175.04-29.68L175.04-29.68Q176.48-29.44 177.96-29.32L177.96-29.32L177.96-29.32Q179.44-29.20 181.20-29.92L181.20-29.92L181.20-29.92Q181.36-30.08 181.52-30L181.52-30L181.52-30Q181.68-29.84 181.44-29.44L181.44-29.44L181.44-29.44Q180.96-28.40 180.08-27.92L180.08-27.92L180.08-27.92Q179.20-27.44 178.24-27.20L178.24-27.20L178.24-27.20Q177.60-25.12 177.12-23.48L177.12-23.48L177.12-23.48Q176.64-21.84 176.32-20.72L176.32-20.72L176.32-20.72Q175.44-16.88 174.28-12.92L174.28-12.92L174.28-12.92Q173.12-8.96 172.72-6.24L172.72-6.24L172.72-6.24Q172.56-5.36 172.40-5.28L172.40-5.28L172.40-5.28Q172.24-5.20 172.08-5.60L172.08-5.60L172.08-5.60Q171.92-6 171.84-6.24L171.84-6.24L171.84-6.24Q171.52-8.56 171.72-11.08L171.72-11.08L171.72-11.08Q171.92-13.60 172.48-16.24L172.48-16.24L172.48-16.24Q173.04-18.88 173.76-21.56L173.76-21.56L173.76-21.56Q174.48-24.24 175.28-26.96L175.28-26.96L175.28-26.96Q174.88-26.96 174.48-26.96L174.48-26.96L174.48-26.96Q174.08-26.96 173.68-27.04L173.68-27.04L173.68-27.04Q173.04-25.36 172.36-23.72L172.36-23.72L172.36-23.72Q171.68-22.08 171.04-20.64L171.04-20.64L171.04-20.64Q170.96-20.48 170.68-19.88L170.68-19.88L170.68-19.88Q170.40-19.28 170.24-19.28L170.24-19.28L170.24-19.28Q169.92-19.36 170-20.04L170-20.04L170-20.04Q170.08-20.72 170.08-20.96L170.08-20.96L170.08-20.96Q170.24-22.16 170.60-23.76L170.60-23.76L170.60-23.76Q170.96-25.36 171.28-27.20L171.28-27.20L171.28-27.20Q170.88-27.28 170.40-27.32L170.40-27.32L170.40-27.32Q169.92-27.36 169.44-27.52L169.44-27.52L169.44-27.52Q168.96-25.92 168.52-24.40L168.52-24.40L168.52-24.40Q168.08-22.88 167.68-21.36L167.68-21.36L167.68-21.36Q167.04-18.56 166.72-15.40L166.72-15.40L166.72-15.40Q166.40-12.24 166.72-8.88L166.72-8.88L166.72-8.88Q166.88-7.36 167.56-5.76L167.56-5.76L167.56-5.76Q168.24-4.16 169.20-2.88L169.20-2.88L169.20-2.88Q170.16-1.60 171.40-0.88L171.40-0.88L171.40-0.88Q172.64-0.16 173.84-0.40" fill="#7d5753" stroke="none" stroke-width="none" transform="translate(-106.91998291015625,20.98150834194449)" style="fill: rgb(44, 29, 30);"></path></g><g class="path" style="transform: scale(0.91); transform-origin: 64.8333px 14.8375px; animation: 2.22222s linear -0.341085s infinite normal forwards running breath-cb77ee28-b880-418c-803b-001720b61602;"><path d="M174.56-2.16L174.56-2.16L174.56-2.16Q174.96-2.48 175.04-2.20L175.04-2.20L175.04-2.20Q175.12-1.92 174.72-1.68L174.72-1.68L174.72-1.68Q174.40-1.44 173.88-1.32L173.88-1.32L173.88-1.32Q173.36-1.20 172.72-1.28L172.72-1.28L172.72-1.28Q172.08-1.36 171.36-1.76L171.36-1.76L171.36-1.76Q170.64-2.16 170-3.04L170-3.04L170-3.04Q169.44-3.76 169.08-5.12L169.08-5.12L169.08-5.12Q168.72-6.48 168.56-7.80L168.56-7.80L168.56-7.80Q168.40-9.12 168.48-10.08L168.48-10.08L168.48-10.08Q168.56-11.04 168.88-11.04L168.88-11.04L168.88-11.04Q169.28-11.04 169.48-9.92L169.48-9.92L169.48-9.92Q169.68-8.80 169.84-8.08L169.84-8.08L169.84-8.08Q170.16-6.80 170.72-5.44L170.72-5.44L170.72-5.44Q171.28-4.08 171.92-3.28L171.92-3.28L171.92-3.28Q172.72-2.24 173.36-2.04L173.36-2.04L173.36-2.04Q174-1.84 174.56-2.16" fill="#7d5753" stroke="none" stroke-width="none" transform="translate(-106.91998291015625,20.98150834194449)" style="fill: rgb(125, 87, 83);"></path></g><g class="path" style="transform: scale(0.91); transform-origin: 86.1433px -19.334px; animation: 2.22222s linear -0.306977s infinite normal forwards running breath-cb77ee28-b880-418c-803b-001720b61602;"><path d="M196.56-42.16L196.56-42.16L196.56-42.16Q195.20-37.44 193.48-32.48L193.48-32.48L193.48-32.48Q191.76-27.52 189.92-23.12L189.92-23.12L189.92-23.12Q189.84-22.88 189.48-22.24L189.48-22.24L189.48-22.24Q189.12-21.60 188.88-21.68L188.88-21.68L188.88-21.68Q188.72-21.68 188.68-22.44L188.68-22.44L188.68-22.44Q188.64-23.20 188.72-23.60L188.72-23.60L188.72-23.60Q188.88-24.64 189.20-26.16L189.20-26.16L189.20-26.16Q189.52-27.68 189.88-29.28L189.88-29.28L189.88-29.28Q190.24-30.88 190.60-32.40L190.60-32.40L190.60-32.40Q190.96-33.92 191.36-35.04L191.36-35.04L191.36-35.04Q191.52-35.52 191.92-37.12L191.92-37.12L191.92-37.12Q192.32-38.72 192.80-40.96L192.80-40.96L192.80-40.96Q193.28-43.20 193.80-45.76L193.80-45.76L193.80-45.76Q194.32-48.32 194.68-50.72L194.68-50.72L194.68-50.72Q195.04-53.12 195.20-55.12L195.20-55.12L195.20-55.12Q195.36-57.12 195.12-58.16L195.12-58.16L195.12-58.16Q194.88-58.96 195.12-58.96L195.12-58.96L195.12-58.96Q195.28-58.96 195.40-58.76L195.40-58.76L195.40-58.76Q195.52-58.56 195.68-58.40L195.68-58.40L195.68-58.40Q196.48-56.96 196.92-54.88L196.92-54.88L196.92-54.88Q197.36-52.80 197.44-50.56L197.44-50.56L197.44-50.56Q197.52-48.32 197.28-46.08L197.28-46.08L197.28-46.08Q197.04-43.84 196.56-42.16" fill="#7d5753" stroke="none" stroke-width="none" transform="translate(-106.91998291015625,20.98150834194449)" style="fill: rgb(224, 170, 130);"></path></g><g class="path" style="transform: scale(0.91); transform-origin: 81.3667px -9.36249px; animation: 2.22222s linear -0.272868s infinite normal forwards running breath-cb77ee28-b880-418c-803b-001720b61602;"><path d="M193.36-60.64L193.36-60.64L193.36-60.64Q194.40-56.56 193.88-52.08L193.88-52.08L193.88-52.08Q193.36-47.60 192.08-42.96L192.08-42.96L192.08-42.96Q190.80-38.32 189.20-33.56L189.20-33.56L189.20-33.56Q187.60-28.80 186.48-24L186.48-24L186.48-24Q185.76-20.96 185.32-17.72L185.32-17.72L185.32-17.72Q184.88-14.48 184.88-11.32L184.88-11.32L184.88-11.32Q184.88-8.16 185.40-5.24L185.40-5.24L185.40-5.24Q185.92-2.32 187.20 0L187.20 0L187.20 0Q187.36 0.32 187.32 0.48L187.32 0.48L187.32 0.48Q187.28 0.64 186.80 0L186.80 0L186.80 0Q184.72-2.40 183.72-5.44L183.72-5.44L183.72-5.44Q182.72-8.48 182.56-11.84L182.56-11.84L182.56-11.84Q182.40-15.20 182.88-18.80L182.88-18.80L182.88-18.80Q183.36-22.40 184.24-25.84L184.24-25.84L184.24-25.84Q185.44-30.64 186.92-35.28L186.92-35.28L186.92-35.28Q188.40-39.92 189.72-44.32L189.72-44.32L189.72-44.32Q191.04-48.72 191.92-52.84L191.92-52.84L191.92-52.84Q192.80-56.96 192.80-60.80L192.80-60.80L192.80-60.80Q192.80-61.20 192.88-61.20L192.88-61.20L192.88-61.20Q193.20-61.20 193.36-60.64" fill="#7d5753" stroke="none" stroke-width="none" transform="translate(-106.91998291015625,20.98150834194449)" style="fill: rgb(31, 20, 24);"></path></g><g class="path" style="transform: scale(0.91); transform-origin: 94.7426px -4.53849px; animation: 2.22222s linear -0.23876s infinite normal forwards running breath-cb77ee28-b880-418c-803b-001720b61602;"><path d="M207.92 0L207.92 0L207.92 0Q204.96-1.36 203.20-4.24L203.20-4.24L203.20-4.24Q201.44-7.12 201.04-10.88L201.04-10.88L201.04-10.88Q200.64-14.56 201.04-17L201.04-17L201.04-17Q201.44-19.44 202.00-21.84L202.00-21.84L202.00-21.84Q202.08-22.16 202.32-22.92L202.32-22.92L202.32-22.92Q202.56-23.68 202.68-24.48L202.68-24.48L202.68-24.48Q202.80-25.28 202.68-25.88L202.68-25.88L202.68-25.88Q202.56-26.48 202.00-26.64L202.00-26.64L202.00-26.64Q200.88-26.88 199.44-25.64L199.44-25.64L199.44-25.64Q198.00-24.40 196.68-22.56L196.68-22.56L196.68-22.56Q195.36-20.72 194.28-18.76L194.28-18.76L194.28-18.76Q193.20-16.80 192.88-15.68L192.88-15.68L192.88-15.68Q192.16-13.36 191.36-11.28L191.36-11.28L191.36-11.28Q190.56-9.20 189.92-7.12L189.92-7.12L189.92-7.12Q189.68-6.24 189.52-6.32L189.52-6.32L189.52-6.32Q189.36-6.32 189.32-6.64L189.32-6.64L189.32-6.64Q189.28-6.96 189.28-7.36L189.28-7.36L189.28-7.36Q189.28-10.56 189.76-13.80L189.76-13.80L189.76-13.80Q190.24-17.04 191.08-20.24L191.08-20.24L191.08-20.24Q191.92-23.44 192.96-26.64L192.96-26.64L192.96-26.64Q194.00-29.84 194.96-33.12L194.96-33.12L194.96-33.12Q196.24-37.20 197.40-41.44L197.40-41.44L197.40-41.44Q198.56-45.68 198.96-50.56L198.96-50.56L198.96-50.56Q198.96-50.96 198.96-51L198.96-51L198.96-51Q198.96-51.04 199.04-51.04L199.04-51.04L199.04-51.04Q199.28-51.04 199.44-50.40L199.44-50.40L199.44-50.40Q199.84-49.36 199.80-47.48L199.80-47.48L199.80-47.48Q199.76-45.60 199.48-43.36L199.48-43.36L199.48-43.36Q199.20-41.12 198.68-38.80L198.68-38.80L198.68-38.80Q198.16-36.48 197.60-34.64L197.60-34.64L197.60-34.64Q199.12-36.24 201.20-37.12L201.20-37.12L201.20-37.12Q203.28-38 206.16-37.60L206.16-37.60L206.16-37.60Q209.44-37.12 211.20-35.24L211.20-35.24L211.20-35.24Q212.96-33.36 213.60-30.72L213.60-30.72L213.60-30.72Q214.24-28.08 213.96-25.08L213.96-25.08L213.96-25.08Q213.68-22.08 212.96-19.28L212.96-19.28L212.96-19.28Q212.32-17.12 211.76-15.48L211.76-15.48L211.76-15.48Q211.20-13.84 210.64-12.48L210.64-12.48L210.64-12.48Q210.08-11.12 209.68-9.92L209.68-9.92L209.68-9.92Q209.28-8.72 209.04-7.36L209.04-7.36L209.04-7.36Q208.88-6.48 208.72-6.48L208.72-6.48L208.72-6.48Q208.56-6.48 208.44-6.80L208.44-6.80L208.44-6.80Q208.32-7.12 208.24-7.44L208.24-7.44L208.24-7.44Q207.76-9.20 208.20-11.76L208.20-11.76L208.20-11.76Q208.64-14.32 209.36-17.16L209.36-17.16L209.36-17.16Q210.08-20 210.68-22.92L210.68-22.92L210.68-22.92Q211.28-25.84 211.16-28.32L211.16-28.32L211.16-28.32Q211.04-30.80 209.84-32.68L209.84-32.68L209.84-32.68Q208.64-34.56 205.76-35.28L205.76-35.28L205.76-35.28Q204.56-35.60 203.16-35.48L203.16-35.48L203.16-35.48Q201.76-35.36 200.52-34.84L200.52-34.84L200.52-34.84Q199.28-34.32 198.32-33.36L198.32-33.36L198.32-33.36Q197.36-32.40 197.04-31.12L197.04-31.12L197.04-31.12Q198.56-32.72 200.96-33.76L200.96-33.76L200.96-33.76Q203.36-34.80 205.60-34.08L205.60-34.08L205.60-34.08Q207.68-33.44 208.56-31.76L208.56-31.76L208.56-31.76Q209.44-30.08 209.60-28.80L209.60-28.80L209.60-28.80Q209.92-26 209.24-23.72L209.24-23.72L209.24-23.72Q208.56-21.44 207.68-19.36L207.68-19.36L207.68-19.36Q207.52-19.12 207.20-18.60L207.20-18.60L207.20-18.60Q206.88-18.08 206.72-18.16L206.72-18.16L206.72-18.16Q206.56-18.16 206.56-18.80L206.56-18.80L206.56-18.80Q206.56-19.44 206.64-19.76L206.64-19.76L206.64-19.76Q206.88-20.56 207.04-22.28L207.04-22.28L207.04-22.28Q207.20-24 207.16-25.84L207.16-25.84L207.16-25.84Q207.12-27.68 206.68-29.28L206.68-29.28L206.68-29.28Q206.24-30.88 205.28-31.44L205.28-31.44L205.28-31.44Q204.16-32.08 202.56-31.80L202.56-31.80L202.56-31.80Q200.96-31.52 199.12-29.84L199.12-29.84L199.12-29.84Q197.52-28.40 196.40-26.52L196.40-26.52L196.40-26.52Q195.28-24.64 194.48-21.60L194.48-21.60L194.48-21.60Q194.96-22.48 196.00-24.08L196.00-24.08L196.00-24.08Q197.04-25.68 198.36-27.12L198.36-27.12L198.36-27.12Q199.68-28.56 201.16-29.40L201.16-29.40L201.16-29.40Q202.64-30.24 204.00-29.60L204.00-29.60L204.00-29.60Q204.88-29.12 205.16-27.96L205.16-27.96L205.16-27.96Q205.44-26.80 205.32-25.36L205.32-25.36L205.32-25.36Q205.20-23.92 204.88-22.56L204.88-22.56L204.88-22.56Q204.56-21.20 204.32-20.40L204.32-20.40L204.32-20.40Q203.44-18 203.12-15.16L203.12-15.16L203.12-15.16Q202.80-12.32 203.16-9.60L203.16-9.60L203.16-9.60Q203.52-6.88 204.72-4.48L204.72-4.48L204.72-4.48Q205.92-2.08 208.24-0.40L208.24-0.40L208.24-0.40Q208.96 0 208.52 0L208.52 0L208.52 0Q208.08 0 207.92 0" fill="#7d5753" stroke="none" stroke-width="none" transform="translate(-106.91998291015625,20.98150834194449)" style="fill: rgb(68, 26, 33);"></path></g><g class="path" style="transform: scale(0.91); transform-origin: 100.989px 14.53px; animation: 2.22222s linear -0.204651s infinite normal forwards running breath-cb77ee28-b880-418c-803b-001720b61602;"><path d="M210.00-0.64L210.00-0.64L210.00-0.64Q208.88-1.28 207.88-2L207.88-2L207.88-2Q206.88-2.72 205.92-4.80L205.92-4.80L205.92-4.80Q205.52-5.60 205.32-6.96L205.32-6.96L205.32-6.96Q205.12-8.32 205.08-9.56L205.08-9.56L205.08-9.56Q205.04-10.80 205.20-11.64L205.20-11.64L205.20-11.64Q205.36-12.48 205.60-12.40L205.60-12.40L205.60-12.40Q205.76-12.40 205.92-12.04L205.92-12.04L205.92-12.04Q206.08-11.68 206.16-11.20L206.16-11.20L206.16-11.20Q206.24-10.72 206.32-10.28L206.32-10.28L206.32-10.28Q206.40-9.84 206.40-9.68L206.40-9.68L206.40-9.68Q206.72-7.92 206.96-7.08L206.96-7.08L206.96-7.08Q207.20-6.24 207.60-5.28L207.60-5.28L207.60-5.28Q208.24-4 208.88-2.96L208.88-2.96L208.88-2.96Q209.52-1.92 210.48-1.04L210.48-1.04L210.48-1.04Q210.88-0.72 210.68-0.56L210.68-0.56L210.68-0.56Q210.48-0.40 210.00-0.64" fill="#7d5753" stroke="none" stroke-width="none" transform="translate(-106.91998291015625,20.98150834194449)" style="fill: rgb(126, 31, 48);"></path></g><g class="path" style="transform: scale(0.91); transform-origin: 81.1314px 14.4718px; animation: 2.22222s linear -0.170543s infinite normal forwards running breath-cb77ee28-b880-418c-803b-001720b61602;"><path d="M189.76 0L189.76 0L189.76 0Q189.84 0 189.64 0.08L189.64 0.08L189.64 0.08Q189.44 0.16 188.88 0L188.88 0L188.88 0Q188.24-0.32 187.56-1.20L187.56-1.20L187.56-1.20Q186.88-2.08 186.48-4.64L186.48-4.64L186.48-4.64Q186.32-5.68 186.32-7.16L186.32-7.16L186.32-7.16Q186.32-8.64 186.44-9.96L186.44-9.96L186.44-9.96Q186.56-11.28 186.80-12.24L186.80-12.24L186.80-12.24Q187.04-13.20 187.36-13.12L187.36-13.12L187.36-13.12Q187.44-13.12 187.52-12.64L187.52-12.64L187.52-12.64Q187.60-12.16 187.68-11.56L187.68-11.56L187.68-11.56Q187.76-10.96 187.76-10.36L187.76-10.36L187.76-10.36Q187.76-9.76 187.76-9.52L187.76-9.52L187.76-9.52Q187.84-7.76 187.96-6.92L187.96-6.92L187.96-6.92Q188.08-6.08 188.32-4.64L188.32-4.64L188.32-4.64Q188.56-3.12 188.88-1.88L188.88-1.88L188.88-1.88Q189.20-0.64 189.76 0" fill="#7d5753" stroke="none" stroke-width="none" transform="translate(-106.91998291015625,20.98150834194449)" style="fill: rgb(219, 53, 72);"></path></g><g class="path" style="transform: scale(0.91); transform-origin: 129.973px 5.47173px; animation: 2.22222s linear -0.136434s infinite normal forwards running breath-cb77ee28-b880-418c-803b-001720b61602;"><path d="M243.76-27.76L243.76-27.76L243.76-27.76Q243.76-23.76 242.68-19.40L242.68-19.40L242.68-19.40Q241.60-15.04 239.84-10.80L239.84-10.80L239.84-10.80Q238.08-6.56 235.80-2.76L235.80-2.76L235.80-2.76Q233.52 1.04 231.12 3.76L231.12 3.76L231.12 3.76Q230.24 4.72 230.08 4.64L230.08 4.64L230.08 4.64Q229.92 4.56 230.24 3.44L230.24 3.44L230.24 3.44Q230.72 2.16 231.48 0.56L231.48 0.56L231.48 0.56Q232.24-1.04 233.00-2.60L233.00-2.60L233.00-2.60Q233.76-4.16 234.52-5.60L234.52-5.60L234.52-5.60Q235.28-7.04 235.76-8L235.76-8L235.76-8Q236.32-9.20 237.04-11.16L237.04-11.16L237.04-11.16Q237.76-13.12 238.44-15.52L238.44-15.52L238.44-15.52Q239.12-17.92 239.76-20.56L239.76-20.56L239.76-20.56Q240.40-23.20 240.88-25.64L240.88-25.64L240.88-25.64Q241.36-28.08 241.64-30.12L241.64-30.12L241.64-30.12Q241.92-32.16 241.84-33.44L241.84-33.44L241.84-33.44Q241.76-34.88 241.88-35.32L241.88-35.32L241.88-35.32Q242.00-35.76 242.16-35.64L242.16-35.64L242.16-35.64Q242.32-35.52 242.52-35.12L242.52-35.12L242.52-35.12Q242.72-34.72 242.88-34.40L242.88-34.40L242.88-34.40Q243.44-32.80 243.60-30.80L243.60-30.80L243.60-30.80Q243.76-28.80 243.76-27.76" fill="#7d5753" stroke="none" stroke-width="none" transform="translate(-106.91998291015625,20.98150834194449)" style="fill: rgb(74, 64, 65);"></path></g><g class="path" style="transform: scale(0.91); transform-origin: 116.32px 1.37351px; animation: 2.22222s linear -0.102326s infinite normal forwards running breath-cb77ee28-b880-418c-803b-001720b61602;"><path d="M228.00-5.68L228.00-5.68L228.00-5.68Q227.44-5.04 226.48-4.48L226.48-4.48L226.48-4.48Q225.52-3.92 224.64-3.92L224.64-3.92L224.64-3.92Q222.72-3.92 221.48-5.04L221.48-5.04L221.48-5.04Q220.24-6.16 219.52-7.80L219.52-7.80L219.52-7.80Q218.80-9.44 218.52-11.28L218.52-11.28L218.52-11.28Q218.24-13.12 218.24-14.56L218.24-14.56L218.24-14.56Q218.24-16.72 218.68-19.56L218.68-19.56L218.68-19.56Q219.12-22.40 220.04-25.24L220.04-25.24L220.04-25.24Q220.96-28.08 222.28-30.60L222.28-30.60L222.28-30.60Q223.60-33.12 225.44-34.64L225.44-34.64L225.44-34.64Q225.92-34.96 226.32-35.24L226.32-35.24L226.32-35.24Q226.72-35.52 226.08-34.40L226.08-34.40L226.08-34.40Q225.60-33.52 225.16-32.88L225.16-32.88L225.16-32.88Q224.72-32.24 224.48-31.44L224.48-31.44L224.48-31.44Q223.20-29.12 222.44-26.56L222.44-26.56L222.44-26.56Q221.68-24 221.20-21.36L221.20-21.36L221.20-21.36Q220.48-17.84 220.48-14.32L220.48-14.32L220.48-14.32Q220.48-13.04 220.60-11.52L220.60-11.52L220.60-11.52Q220.72-10 221.20-8.64L221.20-8.64L221.20-8.64Q221.68-7.28 222.68-6.36L222.68-6.36L222.68-6.36Q223.68-5.44 225.44-5.44L225.44-5.44L225.44-5.44Q225.92-5.44 226.56-5.68L226.56-5.68L226.56-5.68Q227.20-5.92 227.60-6.16L227.60-6.16L227.60-6.16Q228.24-6.40 228.24-6.24L228.24-6.24L228.24-6.24Q228.24-6.08 228.00-5.68" fill="#7d5753" stroke="none" stroke-width="none" transform="translate(-106.91998291015625,20.98150834194449)" style="fill: rgb(44, 29, 30);"></path></g><g class="path" style="transform: scale(0.91); transform-origin: 128.24px 19.0086px; animation: 2.22222s linear -0.0682171s infinite normal forwards running breath-cb77ee28-b880-418c-803b-001720b61602;"><path d="M245.84-26.40L245.84-26.40L245.84-26.40Q246.16-25.20 246.16-23.60L246.16-23.60L246.16-23.60Q246.16-20.32 245.20-16.36L245.20-16.36L245.20-16.36Q244.24-12.40 242.68-8.16L242.68-8.16L242.68-8.16Q241.12-3.92 239.00 0.40L239.00 0.40L239.00 0.40Q236.88 4.72 234.60 8.72L234.60 8.72L234.60 8.72Q232.32 12.72 229.92 16.20L229.92 16.20L229.92 16.20Q227.52 19.68 225.36 22.24L225.36 22.24L225.36 22.24Q225.28 22.32 225.08 22.56L225.08 22.56L225.08 22.56Q224.88 22.80 224.68 23L224.68 23L224.68 23Q224.48 23.20 224.32 23.28L224.32 23.28L224.32 23.28Q224.16 23.36 224.16 23.04L224.16 23.04L224.16 23.04Q224.16 22.88 225.16 20.92L225.16 20.92L225.16 20.92Q226.16 18.96 227.68 16.04L227.68 16.04L227.68 16.04Q229.20 13.12 231.00 9.72L231.00 9.72L231.00 9.72Q232.80 6.32 234.48 3.20L234.48 3.20L234.48 3.20Q236.16 0.08 237.40-2.32L237.40-2.32L237.40-2.32Q238.64-4.72 239.04-5.60L239.04-5.60L239.04-5.60Q241.36-10.72 243.00-15.88L243.00-15.88L243.00-15.88Q244.64-21.04 245.28-26.56L245.28-26.56L245.28-26.56Q245.36-27.20 245.40-27.24L245.40-27.24L245.40-27.24Q245.44-27.28 245.84-26.40" fill="#7d5753" stroke="none" stroke-width="none" transform="translate(-106.91998291015625,20.98150834194449)" style="fill: rgb(125, 87, 83);"></path></g><g class="path" style="transform: scale(0.91); transform-origin: 120.96px 17.6317px; animation: 2.22222s linear -0.0341085s infinite normal forwards running breath-cb77ee28-b880-418c-803b-001720b61602;"><path d="M240.64-32.32L240.64-32.32L240.64-32.32Q240.64-27.84 239.40-23.24L239.40-23.24L239.40-23.24Q238.16-18.64 236.32-14.16L236.32-14.16L236.32-14.16Q234.48-9.68 232.28-5.48L232.28-5.48L232.28-5.48Q230.08-1.28 228.08 2.32L228.08 2.32L228.08 2.32Q224.48 9.04 222.00 15.96L222.00 15.96L222.00 15.96Q219.52 22.88 218.56 30.40L218.56 30.40L218.56 30.40Q218.40 31.28 218.32 31.12L218.32 31.12L218.32 31.12Q218.24 31.12 218.12 30.68L218.12 30.68L218.12 30.68Q218.00 30.24 217.92 29.72L217.92 29.72L217.92 29.72Q217.84 29.20 217.80 28.64L217.80 28.64L217.80 28.64Q217.76 28.08 217.76 27.68L217.76 27.68L217.76 27.68Q217.76 24.08 218.56 20.40L218.56 20.40L218.56 20.40Q219.36 16.72 220.64 13.20L220.64 13.20L220.64 13.20Q221.92 9.68 223.48 6.32L223.48 6.32L223.48 6.32Q225.04 2.96 226.64 0L226.64 0L224.48 0L224.48 0Q222.08 0 220.32-1.12L220.32-1.12L220.32-1.12Q218.56-2.24 217.44-4.08L217.44-4.08L217.44-4.08Q216.32-5.92 215.72-8.40L215.72-8.40L215.72-8.40Q215.12-10.88 215.12-13.60L215.12-13.60L215.12-13.60Q215.12-14.64 215.36-16.52L215.36-16.52L215.36-16.52Q215.60-18.40 216.08-20.44L216.08-20.44L216.08-20.44Q216.56-22.48 217.28-24.44L217.28-24.44L217.28-24.44Q218.00-26.40 218.88-27.60L218.88-27.60L218.88-27.60Q219.52-28.48 219.60-28.32L219.60-28.32L219.60-28.32Q219.68-28.16 219.44-27.28L219.44-27.28L219.44-27.28Q218.40-24.24 217.80-20.96L217.80-20.96L217.80-20.96Q217.20-17.68 217.20-14.48L217.20-14.48L217.20-14.48Q217.20-12.64 217.44-10.48L217.44-10.48L217.44-10.48Q217.68-8.32 218.44-6.52L218.44-6.52L218.44-6.52Q219.20-4.72 220.64-3.52L220.64-3.52L220.64-3.52Q222.08-2.32 224.56-2.32L224.56-2.32L224.56-2.32Q226.32-2.32 227.76-3.52L227.76-3.52L227.76-3.52Q229.20-4.72 230.36-6.48L230.36-6.48L230.36-6.48Q231.52-8.24 232.44-10.32L232.44-10.32L232.44-10.32Q233.36-12.40 234.08-14.16L234.08-14.16L234.08-14.16Q233.28-13.04 232.20-11.96L232.20-11.96L232.20-11.96Q231.12-10.88 229.92-10L229.92-10L229.92-10Q228.72-9.12 227.52-8.56L227.52-8.56L227.52-8.56Q226.32-8 225.20-8L225.20-8L225.20-8Q224.08-8 223.44-8.72L223.44-8.72L223.44-8.72Q222.80-9.44 222.44-10.52L222.44-10.52L222.44-10.52Q222.08-11.60 222.00-12.72L222.00-12.72L222.00-12.72Q221.92-13.84 221.92-14.72L221.92-14.72L221.92-14.72Q221.92-17.60 222.28-20.52L222.28-20.52L222.28-20.52Q222.64-23.44 223.44-26.28L223.44-26.28L223.44-26.28Q224.24-29.12 225.56-31.72L225.56-31.72L225.56-31.72Q226.88-34.32 228.80-36.48L228.80-36.48L228.80-36.48Q228.96-36.72 229.20-36.92L229.20-36.92L229.20-36.92Q229.44-37.12 229.64-37.20L229.64-37.20L229.64-37.20Q229.84-37.28 229.84-37.16L229.84-37.16L229.84-37.16Q229.84-37.04 229.52-36.48L229.52-36.48L229.52-36.48Q227.20-32.16 225.72-26.88L225.72-26.88L225.72-26.88Q224.24-21.60 224.24-16.64L224.24-16.64L224.24-16.64Q224.24-16.16 224.28-15.08L224.28-15.08L224.28-15.08Q224.32-14 224.52-12.88L224.52-12.88L224.52-12.88Q224.72-11.76 225.16-10.92L225.16-10.92L225.16-10.92Q225.60-10.08 226.32-10.08L226.32-10.08L226.32-10.08Q226.56-10.08 226.96-10.32L226.96-10.32L226.96-10.32Q230.32-12 232.64-14.96L232.64-14.96L232.64-14.96Q234.96-17.92 236.48-21.56L236.48-21.56L236.48-21.56Q238.00-25.20 238.68-29.08L238.68-29.08L238.68-29.08Q239.36-32.96 239.44-36.48L239.44-36.48L239.44-36.48Q239.44-37.76 239.60-37.84L239.60-37.84L239.60-37.84Q239.76-37.92 240.16-36.48L240.16-36.48L240.16-36.48Q240.64-34.16 240.64-32.32" fill="#7d5753" stroke="none" stroke-width="none" transform="translate(-106.91998291015625,20.98150834194449)" style="fill: rgb(224, 170, 130);"></path></g><g class="path" style="transform: scale(0.91); transform-origin: 115.693px 44.5415px; animation: 2.22222s linear 0s infinite normal forwards running breath-cb77ee28-b880-418c-803b-001720b61602;"><path d="M225.36 15.04L225.36 15.04L225.36 15.04Q225.36 15.60 225.00 16.88L225.00 16.88L225.00 16.88Q224.64 18.16 224.16 19.60L224.16 19.60L224.16 19.60Q223.68 21.04 223.20 22.40L223.20 22.40L223.20 22.40Q222.72 23.76 222.48 24.48L222.48 24.48L222.48 24.48Q221.84 26.24 221.52 27.96L221.52 27.96L221.52 27.96Q221.20 29.68 220.80 31.52L220.80 31.52L220.80 31.52Q220.80 31.68 220.72 32L220.72 32L220.72 32Q220.64 32.32 220.40 32.32L220.40 32.32L220.40 32.32Q220.24 32.32 220.16 31.92L220.16 31.92L220.16 31.92Q220.08 31.52 220.08 31.36L220.08 31.36L220.08 31.36Q219.92 30.72 219.88 29.60L219.88 29.60L219.88 29.60Q219.84 28.48 219.92 27.84L219.92 27.84L219.92 27.84Q220.16 25.84 220.80 23.56L220.80 23.56L220.80 23.56Q221.44 21.28 222.20 19.32L222.20 19.32L222.20 19.32Q222.96 17.36 223.76 16.08L223.76 16.08L223.76 16.08Q224.56 14.80 225.12 14.80L225.12 14.80L225.12 14.80Q225.36 14.80 225.36 15.04" fill="#7d5753" stroke="none" stroke-width="none" transform="translate(-106.91998291015625,20.98150834194449)" style="fill: rgb(31, 20, 24);"></path></g></g>
</g>
</g>
<style id="breath-cb77ee28-b880-418c-803b-001720b61602" data-anikit="">@keyframes breath-cb77ee28-b880-418c-803b-001720b61602
{
  0% {
    animation-timing-function: cubic-bezier(0.9647,0.2413,-0.0705,0.7911);
    transform: scale(0.9099999999999999);
  }
  51% {
    animation-timing-function: cubic-bezier(0.9226,0.2631,-0.0308,0.7628);
    transform: scale(1.02994);
  }
  100% {
    transform: scale(0.9099999999999999);
  }
}</style></svg>