<svg id="Capa_1" enable-background="new 0 0 512 512" height="512" viewBox="0 0 512 512" width="512" xmlns="http://www.w3.org/2000/svg"><g><g><path d="m350.396 464.721h-188.792l37.531-110.633h113.73z" fill="#c5d3dd"/><path d="m297.381 464.721h53.015l-37.531-110.634h-113.73l-20.015 59h46.221c32.596.001 61.569 20.767 72.04 51.634z" fill="#b6c4cf"/><path d="m485.673 394.007h-459.346c-10.398 0-18.827-8.429-18.827-18.827v-347.853c0-10.398 8.429-18.827 18.827-18.827h459.345c10.398 0 18.827 8.429 18.827 18.827v347.852c.001 10.399-8.428 18.828-18.826 18.828z" fill="#9facba"/><path d="m485.673 8.5h-38.173c0 194.684-157.823 352.506-352.506 352.506h-87.494v14.173c0 10.398 8.429 18.827 18.827 18.827h459.345c10.398 0 18.828-8.429 18.828-18.828v-347.851c0-10.398-8.429-18.827-18.827-18.827z" fill="#8d9ca8"/><path d="m41.619 319.142v-268.854c0-4.182 3.39-7.572 7.572-7.572h413.618c4.182 0 7.572 3.39 7.572 7.572v268.854c0 4.182-3.39 7.572-7.572 7.572h-413.618c-4.182 0-7.572-3.39-7.572-7.572z" fill="#eaf6ff"/><path d="m462.809 42.717h-16.955c-12.099 125.601-90.105 231.934-199.022 283.998h215.977c4.182 0 7.572-3.39 7.572-7.572v-268.855c0-4.181-3.39-7.571-7.572-7.571z" fill="#d8ecfe"/><path d="m470.381 503.5h-428.762l19.114-29.624c3.682-5.707 10.014-9.155 16.812-9.155h356.911c6.798 0 13.13 3.448 16.812 9.155z" fill="#9facba"/><g><ellipse cx="256" cy="185.002" fill="#fee45a" rx="98.945" ry="99.228"/><path d="m301.155 96.688c10.602 15.805 16.79 34.834 16.79 55.314 0 54.802-44.299 99.228-98.945 99.228-16.268 0-31.617-3.938-45.155-10.914 17.767 26.487 47.931 43.914 82.155 43.914 54.646 0 98.945-44.426 98.945-99.228 0-38.488-21.851-71.857-53.79-88.314z" fill="#fedf30"/><path d="m291.127 180.854c4.173-5.15 6.681-11.712 6.681-18.862 0-13.823-9.431-25.479-22.194-28.887v-7.331c0-4.142-3.357-7.5-7.5-7.5s-7.5 3.358-7.5 7.5v6.319h-9.903v-6.319c0-4.142-3.357-7.5-7.5-7.5s-7.5 3.358-7.5 7.5v6.319h-3.689-1.09-13.173c-4.143 0-7.5 3.358-7.5 7.5s3.357 7.5 7.5 7.5h5.673v37.362 37.362h-5.673c-4.143 0-7.5 3.358-7.5 7.5s3.357 7.5 7.5 7.5h13.173 1.09 3.689v6.319c0 4.142 3.357 7.5 7.5 7.5s7.5-3.358 7.5-7.5v-6.319h9.903v6.319c0 4.142 3.357 7.5 7.5 7.5s7.5-3.358 7.5-7.5v-6.319h.779c16.486 0 29.898-13.413 29.898-29.963 0-11.13-6.118-20.853-15.164-26zm-8.319-18.797c0 8.215-6.684 14.899-14.899 14.899h-29.478v-29.862h29.478c8.215 0 14.899 6.683 14.899 14.963zm-6.415 59.76h-37.962v-29.862h29.478 8.484c8.215 0 14.898 6.684 14.898 14.963 0 8.216-6.684 14.899-14.898 14.899z" fill="#fe7d43"/><ellipse cx="423.864" cy="184.544" fill="#fee45a" rx="17.5" ry="17.477"/><ellipse cx="392.864" cy="96.659" fill="#fd8087" rx="17.5" ry="17.477"/><ellipse cx="392.864" cy="272.175" fill="#fd8087" rx="17.5" ry="17.477"/><ellipse cx="87.95" cy="184.544" fill="#fee45a" rx="17.5" ry="17.477"/><g fill="#fd8087"><ellipse cx="118.95" cy="96.659" rx="17.5" ry="17.477"/><ellipse cx="118.95" cy="272.175" rx="17.5" ry="17.477"/></g></g></g><g><path d="m485.673 1h-459.346c-14.516 0-26.327 11.811-26.327 26.328v51.854c0 4.142 3.357 7.5 7.5 7.5s7.5-3.358 7.5-7.5v-51.854c0-6.246 5.081-11.328 11.327-11.328h459.346c6.246 0 11.327 5.082 11.327 11.328v347.852c0 6.246-5.081 11.327-11.327 11.327h-459.346c-6.246 0-11.327-5.081-11.327-11.327v-266.555c0-4.142-3.357-7.5-7.5-7.5s-7.5 3.358-7.5 7.5v266.555c0 14.517 11.811 26.327 26.327 26.327h148.799l-18.903 55.715h-78.678c-9.388 0-18.028 4.706-23.114 12.588l-19.113 29.624c-1.489 2.308-1.598 5.244-.284 7.655s3.839 3.911 6.585 3.911h428.762c2.746 0 5.272-1.5 6.586-3.911s1.205-5.348-.284-7.655l-19.113-29.624c-5.086-7.882-13.727-12.588-23.114-12.588h-78.679l-18.903-55.715h148.799c14.517 0 26.327-11.811 26.327-26.327v-347.852c0-14.517-11.811-26.328-26.327-26.328zm-40.707 476.942 11.65 18.058h-401.232l11.65-18.058c2.312-3.582 6.241-5.721 10.511-5.721h356.91c4.27.001 8.199 2.139 10.511 5.721zm-105.03-20.722h-167.872l18.902-55.713h130.067z"/><path d="m423.864 334.214h38.945c8.311 0 15.071-6.761 15.071-15.071v-268.854c0-8.311-6.761-15.072-15.071-15.072h-413.619c-8.311 0-15.071 6.761-15.071 15.072v268.854c0 8.311 6.761 15.071 15.071 15.071h345.6c4.143 0 7.5-3.357 7.5-7.5s-3.357-7.5-7.5-7.5h-345.6c-.039 0-.071-.032-.071-.071v-268.854c0-.04.032-.072.071-.072h413.62c.039 0 .071.032.071.072v268.854c0 .039-.032.071-.071.071h-38.945c-4.143 0-7.5 3.357-7.5 7.5s3.357 7.5 7.499 7.5z"/><path d="m233.823 358.65c0 4.724 3.819 8.554 8.53 8.554s8.53-3.83 8.53-8.554-3.819-8.554-8.53-8.554-8.53 3.829-8.53 8.554z"/><path d="m261.118 358.65c0 4.724 3.819 8.554 8.53 8.554s8.53-3.83 8.53-8.554-3.819-8.554-8.53-8.554-8.53 3.829-8.53 8.554z"/><path d="m223.431 221.817h-5.673c-4.143 0-7.5 3.358-7.5 7.5s3.357 7.5 7.5 7.5h13.173 1.09 3.689v6.319c0 4.142 3.357 7.5 7.5 7.5s7.5-3.358 7.5-7.5v-6.319h9.903v6.319c0 4.142 3.357 7.5 7.5 7.5s7.5-3.358 7.5-7.5v-6.319h.779c16.486 0 29.898-13.413 29.898-29.963 0-11.131-6.118-20.853-15.164-26 4.173-5.15 6.681-11.712 6.681-18.862 0-13.823-9.431-25.479-22.194-28.887v-7.331c0-4.142-3.357-7.5-7.5-7.5s-7.5 3.358-7.5 7.5v6.319h-9.903v-6.319c0-4.142-3.357-7.5-7.5-7.5s-7.5 3.358-7.5 7.5v6.319h-3.689-1.09-13.173c-4.143 0-7.5 3.358-7.5 7.5s3.357 7.5 7.5 7.5h5.673zm59.377-59.76c0 8.215-6.684 14.899-14.899 14.899h-29.478v-29.862h29.478c8.215 0 14.899 6.683 14.899 14.963zm-6.415 29.899c8.215 0 14.898 6.684 14.898 14.963 0 8.215-6.684 14.899-14.898 14.899h-37.962v-29.862z"/><path d="m367.864 272.176c0 13.772 11.215 24.977 25 24.977s25-11.204 25-24.977c0-11.005-7.164-20.364-17.074-23.683v-16.353c0-9.602-7.817-17.447-17.427-17.487l-25.07-.105c2.073-7.203 3.403-14.718 3.912-22.455h37.83c3.211 10.093 12.678 17.428 23.83 17.428 13.785 0 25-11.205 25-24.977s-11.215-24.977-25-24.977c-11.189 0-20.684 7.382-23.863 17.526h-37.848c-.578-7.867-2.013-15.498-4.207-22.804l25.415-.105c9.61-.039 17.429-7.884 17.429-17.487v-16.355c9.911-3.32 17.074-12.678 17.074-23.683 0-13.772-11.215-24.977-25-24.977s-25 11.205-25 24.977c0 11.318 7.576 20.896 17.926 23.953v16.086c0 1.366-1.117 2.481-2.49 2.487l-31.115.129c-17.105-36.055-53.788-61.04-96.186-61.04s-79.081 24.985-96.185 61.039l-31.306-.129c-1.372-.005-2.489-1.121-2.489-2.487v-16.084c10.352-3.055 17.931-12.635 17.931-23.954 0-13.772-11.215-24.977-25-24.977s-25 11.205-25 24.977c0 11.003 7.161 20.361 17.069 23.682v16.357c0 9.603 7.818 17.448 17.428 17.487l25.606.105c-2.193 7.306-3.629 14.936-4.207 22.804h-38.034c-3.18-10.145-12.674-17.526-23.863-17.526-13.785 0-25 11.205-25 24.977s11.215 24.977 25 24.977c11.152 0 20.619-7.334 23.83-17.428h38.015c.509 7.737 1.839 15.251 3.912 22.454l-25.26.105c-9.609.04-17.428 7.885-17.428 17.487v16.354c-9.908 3.321-17.069 12.679-17.069 23.682 0 13.772 11.215 24.977 25 24.977s25-11.204 25-24.977c0-11.32-7.579-20.899-17.931-23.954v-16.082c0-1.366 1.117-2.481 2.49-2.487l30.761-.128c16.861 36.68 53.875 62.206 96.729 62.206s79.868-25.525 96.729-62.206l30.572.128c1.373.006 2.489 1.121 2.489 2.487v16.083c-10.349 3.057-17.925 12.635-17.925 23.953zm25-185.494c5.514 0 10 4.476 10 9.977s-4.486 9.978-10 9.978-10-4.476-10-9.978 4.487-9.977 10-9.977zm-273.914 0c5.514 0 10 4.476 10 9.977s-4.486 9.978-10 9.978-10-4.476-10-9.978 4.487-9.977 10-9.977zm0 195.47c-5.514 0-10-4.476-10-9.977 0-5.502 4.486-9.978 10-9.978s10 4.476 10 9.978-4.486 9.977-10 9.977zm304.914-107.585c5.514 0 10 4.476 10 9.977s-4.486 9.977-10 9.977-10-4.476-10-9.977 4.487-9.977 10-9.977zm-335.914 19.954c-5.514 0-10-4.476-10-9.977s4.486-9.977 10-9.977 10 4.476 10 9.977-4.486 9.977-10 9.977zm168.05 82.209c-50.423 0-91.445-41.149-91.445-91.729s41.022-91.727 91.445-91.727 91.445 41.149 91.445 91.728-41.022 91.728-91.445 91.728zm136.864 5.422c-5.514 0-10-4.476-10-9.977 0-5.502 4.486-9.978 10-9.978s10 4.476 10 9.978-4.486 9.977-10 9.977z"/></g></g></svg>